<?xml version="1.0" encoding="UTF-8" standalone="no"?>
<!DOCTYPE svg PUBLIC "-//W3C//DTD SVG 1.1//EN" "http://www.w3.org/Graphics/SVG/1.1/DTD/svg11.dtd">
<svg width="100%" height="100%" viewBox="0 0 271 271" version="1.1" xmlns="http://www.w3.org/2000/svg" xmlns:xlink="http://www.w3.org/1999/xlink" xml:space="preserve" xmlns:serif="http://www.serif.com/" style="fill-rule:evenodd;clip-rule:evenodd;stroke-linejoin:round;stroke-miterlimit:1.41421;">
    <g transform="matrix(1,0,0,1,-1584.24,-452)">
        <g id="Artboard5" transform="matrix(1.88173,0,0,1.88173,-842.76,-399.432)">
            <rect x="1289.78" y="452.474" width="144" height="144" style="fill:none;"/>
            <g transform="matrix(1.7493,0,0,1.7493,-344.25,-353.274)">
                <path d="M951.582,499.346L952.828,497.064L955.404,497.064L955.53,499.248C955.572,500.032 956.536,499.822 956.494,499.206L956.075,493.006C956.019,492.222 955.767,491.928 955.236,491.928C954.83,491.928 954.536,492.082 954.102,492.866L950.742,498.954C950.308,499.738 951.148,500.13 951.582,499.346ZM953.248,496.31L955.152,492.852L955.348,496.31L953.248,496.31Z" style="fill:rgb(219,168,124);fill-rule:nonzero;"/>
                <path d="M959.896,493.536C960.162,492.473 959.812,491.956 959.1,491.956C958.454,491.956 958.133,492.221 958.175,492.584C958.203,492.794 958.357,492.934 958.51,492.934C958.833,492.934 959.211,492.654 958.973,493.578L957.923,497.765C957.574,499.179 958.119,499.64 958.804,499.64C959.196,499.64 959.434,499.486 959.574,499.36C959.826,499.109 959.77,498.885 959.672,498.774C959.56,498.647 959.378,498.605 959.224,498.703C958.874,498.941 958.58,498.871 958.776,498.101L959.896,493.536Z" style="fill:rgb(219,168,124);fill-rule:nonzero;"/>
                <path d="M962.822,493.536C963.088,492.473 962.738,491.956 962.026,491.956C961.38,491.956 961.059,492.221 961.101,492.584C961.129,492.794 961.283,492.934 961.436,492.934C961.759,492.934 962.137,492.654 961.899,493.578L960.849,497.765C960.5,499.179 961.045,499.64 961.73,499.64C962.122,499.64 962.36,499.486 962.5,499.36C962.752,499.109 962.696,498.885 962.598,498.774C962.486,498.647 962.304,498.605 962.15,498.703C961.8,498.941 961.506,498.871 961.702,498.101L962.822,493.536Z" style="fill:rgb(219,168,124);fill-rule:nonzero;"/>
                <path d="M965.86,497.05C966.518,497.05 966.518,496.058 965.86,496.058L963.397,496.058C962.754,496.058 962.768,497.05 963.425,497.05L965.86,497.05Z" style="fill:rgb(219,168,124);fill-rule:nonzero;"/>
                <path d="M968.242,499.346L969.488,497.064L972.064,497.064L972.19,499.248C972.232,500.032 973.196,499.822 973.154,499.206L972.735,493.006C972.679,492.222 972.427,491.928 971.896,491.928C971.49,491.928 971.196,492.082 970.762,492.866L967.402,498.954C966.968,499.738 967.808,500.13 968.242,499.346ZM969.908,496.31L971.812,492.852L972.008,496.31L969.908,496.31Z" style="fill:rgb(219,168,124);fill-rule:nonzero;"/>
                <path d="M975.536,499.054L975.689,498.172C976.024,496.212 976.822,495.302 977.62,495.162C978.124,495.078 978.334,494.98 978.334,494.602C978.334,494.252 978.11,494.084 977.83,494.084C977.256,494.098 976.472,494.434 976.08,495.862L976.22,495.216C976.43,494.237 975.955,494.042 975.508,494.042C974.836,494.042 974.57,494.363 974.57,494.642C974.57,494.838 974.71,495.006 974.948,495.006C975.074,495.006 975.186,494.964 975.284,494.964C975.438,494.964 975.494,495.048 975.494,495.188C975.494,495.244 975.48,495.314 975.466,495.398L974.598,499.248C974.556,499.458 974.738,499.64 974.99,499.64C975.284,499.642 975.466,499.474 975.536,499.054Z" style="fill:rgb(219,168,124);fill-rule:nonzero;"/>
                <path d="M979.846,499.654C980.925,499.654 981.961,498.844 982.324,496.953C982.73,494.894 981.835,494.042 980.841,494.042C979.692,494.042 978.699,494.754 978.28,496.743C977.86,498.871 978.769,499.654 979.846,499.654ZM980.743,494.866C981.332,494.866 981.653,495.454 981.332,496.911C981.093,498.059 980.659,498.844 979.973,498.844C979.258,498.844 978.978,498.227 979.258,496.841C979.538,495.482 980.057,494.866 980.743,494.866Z" style="fill:rgb(219,168,124);fill-rule:nonzero;"/>
                <path d="M988.232,498.997C988.232,498.745 987.98,498.521 987.589,498.773C987.295,498.955 987.043,498.801 987.155,498.283L987.896,494.782C988.008,494.293 987.854,494.042 987.575,494.042C987.337,494.042 987.113,494.153 987.015,494.572L986.623,496.28C986.386,497.023 985.293,498.606 984.676,498.606C984.382,498.606 984.228,498.353 984.41,497.695L984.956,495.734C985.334,494.419 984.747,494.042 984.202,494.042C983.656,494.042 983.278,494.265 983.278,494.614C983.278,494.936 983.53,495.062 983.81,494.978C984.118,494.88 984.257,494.922 984.062,495.594L983.501,497.625C983.096,499.109 983.613,499.64 984.34,499.64C984.914,499.64 985.643,499.374 986.344,498.087C986.302,498.269 986.288,498.423 986.288,498.563C986.288,499.305 986.707,499.64 987.295,499.64C987.826,499.64 988.232,499.291 988.232,498.997Z" style="fill:rgb(219,168,124);fill-rule:nonzero;"/>
                <path d="M994.07,499.193C994.224,498.885 994,498.633 993.748,498.661C993.622,498.675 993.482,498.83 993.314,498.83C993.16,498.83 993.076,498.745 993.076,498.535C993.076,498.451 993.09,498.339 993.132,498.199L993.72,495.986C994.084,494.614 993.65,494.042 992.882,494.042C992.139,494.042 991.382,494.628 990.766,495.888C990.864,495.426 990.906,495.104 990.906,494.908C990.906,494.293 990.556,494.042 990.095,494.042C989.647,494.042 989.158,494.237 989.158,494.614C989.158,494.88 989.326,495.02 989.507,495.02C989.717,495.02 990.179,494.754 990.039,495.384L989.214,499.137C989.158,499.416 989.353,499.626 989.633,499.64C989.913,499.654 990.095,499.472 990.165,499.137L990.57,497.317C991.286,496.028 992.084,495.062 992.56,495.062C992.854,495.062 992.952,495.328 992.798,495.93L992.238,498.115C992.196,498.297 992.168,498.465 992.168,498.619C992.168,499.318 992.601,499.64 993.174,499.64C993.622,499.64 993.972,499.402 994.07,499.193Z" style="fill:rgb(219,168,124);fill-rule:nonzero;"/>
                <path d="M999.53,499.332C999.698,499.151 999.754,498.955 999.614,498.787C999.516,498.661 999.335,498.647 999.237,498.717C998.916,498.955 998.508,498.997 998.718,498.087L999.768,493.411C999.978,492.5 999.67,491.942 998.888,491.942C998.341,491.942 997.893,492.193 997.949,492.584C997.991,492.808 998.173,492.92 998.355,492.92C998.58,492.92 998.971,492.654 998.804,493.439L998.58,494.475C998.271,494.209 997.921,494.028 997.487,494.028C996.59,494.028 995.569,494.712 995.079,496.673C994.59,499.039 995.443,499.64 996.24,499.64C996.899,499.64 997.347,499.276 997.754,498.703C997.824,499.43 998.355,499.64 998.761,499.64C999.083,499.64 999.349,499.514 999.53,499.332ZM996.044,496.687C996.408,495.328 996.941,494.95 997.445,494.95C997.725,494.95 998.089,495.132 998.383,495.384L997.991,497.219C997.361,498.549 996.871,498.746 996.436,498.746C995.988,498.746 995.666,498.185 996.044,496.687Z" style="fill:rgb(219,168,124);fill-rule:nonzero;"/>
                <path d="M958.673,509.572C961.711,509.572 963.193,507.613 963.193,505.471C963.193,503.216 961.809,502.14 959.737,502.14L958.785,502.14C958.603,502.14 958.421,502.237 958.379,502.447L957.035,508.72C956.923,509.237 957.161,509.572 957.651,509.572L958.673,509.572ZM958.659,508.636L958.015,508.636L959.247,503.076L959.653,503.076C961.221,503.076 962.215,503.79 962.215,505.513C962.215,507.095 961.123,508.636 958.659,508.636Z" style="fill:rgb(219,168,124);fill-rule:nonzero;"/>
                <path d="M967.197,508.719C967.351,508.495 967.449,508.201 967.169,508.004C967.016,507.92 966.82,507.934 966.652,508.173C966.429,508.467 965.966,508.916 965.35,508.916C964.775,508.916 964.425,508.411 964.467,507.584C966.176,507.528 967.169,506.802 967.393,505.835C967.659,504.728 967.016,504.1 966.12,504.1C965.21,504.1 964.034,504.77 963.643,506.871C963.279,508.804 964.187,509.698 965.336,509.698C966.12,509.698 966.82,509.293 967.197,508.719ZM966.05,504.966C966.471,504.966 966.652,505.26 966.513,505.737C966.316,506.395 965.546,506.704 964.593,506.774C964.859,505.568 965.574,504.966 966.05,504.966Z" style="fill:rgb(219,168,124);fill-rule:nonzero;"/>
                <path d="M970.082,504.91C970.768,504.91 970.768,505.526 971.047,505.526C971.313,505.526 971.537,505.372 971.537,505.134C971.537,504.644 971.019,504.058 970.166,504.058C968.878,504.058 968.333,504.854 968.333,505.568C968.333,506.226 968.724,506.549 969.199,506.997L969.62,507.403C969.9,507.669 970.279,508.033 970.279,508.341C970.279,508.72 969.998,508.986 969.465,508.986C968.57,508.986 968.612,508.047 968.151,508.047C967.955,508.047 967.759,508.159 967.759,508.481C967.759,509.028 968.444,509.726 969.465,509.726C970.474,509.726 971.187,509.167 971.187,508.313C971.187,507.585 970.544,507.165 970.124,506.745L969.746,506.367C969.423,506.044 969.269,505.89 969.269,505.596C969.269,505.232 969.606,504.91 970.082,504.91Z" style="fill:rgb(219,168,124);fill-rule:nonzero;"/>
                <path d="M972.883,502.881C972.883,503.272 973.218,503.552 973.596,503.552C973.987,503.552 974.295,503.272 974.295,502.881C974.295,502.503 973.987,502.224 973.596,502.224C973.218,502.224 972.883,502.503 972.883,502.881ZM974.113,505.484C974.393,504.519 974.001,504.1 973.358,504.1C972.715,504.1 972.295,504.365 972.337,504.728C972.365,504.938 972.519,505.078 972.673,505.078C972.995,505.078 973.4,504.812 973.135,505.722L972.504,507.823C972.085,509.209 972.7,509.698 973.385,509.698C973.777,509.698 974.015,509.544 974.155,509.419C974.407,509.167 974.351,508.944 974.253,508.832C974.141,508.706 973.959,508.664 973.805,508.762C973.455,508.999 973.147,508.916 973.357,508.159L974.113,505.484Z" style="fill:rgb(219,168,124);fill-rule:nonzero;"/>
                <path d="M978.733,510.076L979.783,504.714C979.881,504.239 979.629,504.072 979.433,504.072C979.237,504.072 978.999,504.142 978.845,504.589C978.593,504.295 978.173,504.1 977.753,504.1C976.843,504.1 975.877,504.714 975.402,506.605C974.871,508.971 975.682,509.698 976.591,509.698C977.151,509.698 977.669,509.335 978.061,508.887L977.879,509.88C977.669,511.085 977.053,511.296 976.535,511.296C976.017,511.296 975.766,511.141 975.458,510.931C975.039,510.637 974.479,511.184 974.913,511.631C975.179,511.896 975.794,512.162 976.507,512.162C977.291,512.162 978.383,511.882 978.733,510.076ZM976.801,508.804C976.143,508.804 976.017,508.061 976.325,506.815C976.731,505.288 977.221,505.008 977.725,505.008C977.991,505.008 978.453,505.148 978.677,505.47L978.285,507.557C978.019,508.117 977.361,508.804 976.801,508.804Z" style="fill:rgb(219,168,124);fill-rule:nonzero;"/>
                <path d="M985.663,509.251C985.817,508.944 985.593,508.692 985.341,508.72C985.215,508.734 985.075,508.888 984.907,508.888C984.753,508.888 984.669,508.804 984.669,508.594C984.669,508.509 984.683,508.397 984.725,508.257L985.313,506.044C985.677,504.673 985.243,504.1 984.475,504.1C983.732,504.1 982.975,504.687 982.359,505.946C982.457,505.484 982.499,505.162 982.499,504.966C982.499,504.351 982.149,504.1 981.688,504.1C981.24,504.1 980.751,504.295 980.751,504.673C980.751,504.938 980.919,505.078 981.1,505.078C981.31,505.078 981.772,504.812 981.632,505.442L980.807,509.195C980.751,509.474 980.946,509.684 981.226,509.698C981.506,509.712 981.688,509.53 981.758,509.195L982.163,507.375C982.879,506.086 983.677,505.12 984.153,505.12C984.447,505.12 984.545,505.386 984.391,505.988L983.831,508.173C983.789,508.355 983.761,508.523 983.761,508.678C983.761,509.377 984.194,509.698 984.767,509.698C985.215,509.698 985.565,509.46 985.663,509.251Z" style="fill:rgb(219,168,124);fill-rule:nonzero;"/>
                <path d="M990.199,508.719C990.353,508.495 990.451,508.201 990.171,508.004C990.018,507.92 989.822,507.934 989.654,508.173C989.431,508.467 988.968,508.916 988.352,508.916C987.777,508.916 987.427,508.411 987.469,507.584C989.178,507.528 990.171,506.802 990.395,505.835C990.661,504.728 990.018,504.1 989.122,504.1C988.212,504.1 987.036,504.77 986.645,506.871C986.281,508.804 987.189,509.698 988.338,509.698C989.122,509.698 989.822,509.293 990.199,508.719ZM989.052,504.966C989.473,504.966 989.654,505.26 989.515,505.737C989.318,506.395 988.548,506.704 987.595,506.774C987.861,505.568 988.576,504.966 989.052,504.966Z" style="fill:rgb(219,168,124);fill-rule:nonzero;"/>
                <path d="M992.231,509.112L992.384,508.23C992.719,506.27 993.517,505.36 994.315,505.22C994.819,505.136 995.029,505.038 995.029,504.66C995.029,504.31 994.805,504.142 994.525,504.142C993.951,504.156 993.167,504.492 992.775,505.92L992.915,505.274C993.125,504.295 992.65,504.1 992.203,504.1C991.531,504.1 991.265,504.421 991.265,504.701C991.265,504.896 991.405,505.064 991.643,505.064C991.769,505.064 991.881,505.022 991.979,505.022C992.133,505.022 992.189,505.106 992.189,505.246C992.189,505.302 992.175,505.372 992.161,505.456L991.293,509.306C991.251,509.516 991.433,509.698 991.685,509.698C991.979,509.7 992.161,509.532 992.231,509.112Z" style="fill:rgb(219,168,124);fill-rule:nonzero;"/>
            </g>
            <g transform="matrix(0.865498,0,0,0.599386,446.364,185.869)">
                <path d="M1057.6,603.692C1072.73,603.715 1087.85,605.7 1102.49,612.079C1102.49,612.079 1103.05,612.206 1103.18,612.781C1103.31,613.384 1102.93,614.029 1102.42,613.899C1077.03,602.78 1048.65,602.79 1023.71,609.981C1019.87,611.088 1016.06,612.439 1012.32,614.107C1012.32,614.107 1011.68,614.507 1011.37,613.935C1011.13,613.485 1011.27,612.806 1011.67,612.542C1026.56,605.821 1042.29,603.691 1057.6,603.692Z" style="fill:rgb(219,168,124);fill-rule:nonzero;"/>
            </g>
            <g transform="matrix(0.865498,0,0,0.599386,446.364,202.313)">
                <path d="M1057.96,603.692C1071.36,603.726 1084.84,605.515 1097.83,610.222C1099.82,610.946 1098.65,612.255 1098.06,612.136C1077.81,604.65 1056.64,603.751 1035.93,607.226C1029.53,608.3 1023.17,609.891 1016.93,612.217C1016.93,612.217 1016.21,612.551 1015.96,611.869C1015.63,610.941 1016.78,610.434 1017.71,610.102C1030.84,605.38 1044.58,603.677 1057.96,603.692Z" style="fill:rgb(219,168,124);fill-rule:nonzero;"/>
            </g>
            <g transform="matrix(0.865498,0,0,0.599386,446.364,196.448)">
                <g transform="matrix(0.595738,-0.2147,0.148687,0.86023,318.047,303.201)">
                    <path d="M1024.6,605.079C1024.68,605.079 1024.75,605.108 1024.81,605.167C1024.87,605.225 1024.9,605.295 1024.9,605.376L1024.9,612.482C1024.9,612.562 1024.87,612.632 1024.81,612.691C1024.75,612.749 1024.68,612.779 1024.6,612.779L1023.16,612.779C1023.08,612.779 1023.01,612.749 1022.95,612.691C1022.89,612.632 1022.86,612.562 1022.86,612.482L1022.86,609.787L1020.42,609.787L1020.42,612.482C1020.42,612.562 1020.39,612.632 1020.33,612.691C1020.27,612.749 1020.2,612.779 1020.12,612.779L1018.68,612.779C1018.6,612.779 1018.53,612.751 1018.47,612.696C1018.42,612.641 1018.38,612.57 1018.38,612.482L1018.38,605.376C1018.38,605.295 1018.42,605.225 1018.47,605.167C1018.53,605.108 1018.6,605.079 1018.68,605.079L1020.12,605.079C1020.2,605.079 1020.27,605.108 1020.33,605.167C1020.39,605.225 1020.42,605.295 1020.42,605.376L1020.42,608.027L1022.86,608.027L1022.86,605.376C1022.86,605.295 1022.89,605.225 1022.95,605.167C1023.01,605.108 1023.08,605.079 1023.16,605.079L1024.6,605.079Z" style="fill:rgb(219,168,124);fill-rule:nonzero;"/>
                </g>
                <g transform="matrix(0.603889,-0.160339,0.11104,0.872,333.295,242.724)">
                    <path d="M1033.52,606.719L1036.66,606.719C1036.74,606.719 1036.81,606.69 1036.87,606.631C1036.93,606.572 1036.96,606.503 1036.96,606.422L1036.96,605.256C1036.96,605.175 1036.93,605.106 1036.87,605.047C1036.81,604.988 1036.74,604.959 1036.66,604.959L1033.52,604.959L1033.52,603.771L1036.9,603.771C1036.99,603.771 1037.05,603.742 1037.11,603.683C1037.17,603.624 1037.2,603.555 1037.2,603.474L1037.2,602.308C1037.2,602.227 1037.17,602.158 1037.11,602.099C1037.05,602.04 1036.99,602.011 1036.9,602.011L1031.78,602.011C1031.7,602.011 1031.63,602.04 1031.57,602.099C1031.51,602.158 1031.48,602.227 1031.48,602.308L1031.48,609.414C1031.48,609.495 1031.51,609.564 1031.57,609.623C1031.63,609.682 1031.7,609.711 1031.78,609.711L1036.99,609.711C1037.07,609.711 1037.14,609.682 1037.2,609.623C1037.26,609.564 1037.29,609.495 1037.29,609.414L1037.29,608.248C1037.29,608.167 1037.26,608.098 1037.2,608.039C1037.14,607.98 1037.07,607.951 1036.99,607.951L1033.52,607.951L1033.52,606.719Z" style="fill:rgb(219,168,124);fill-rule:nonzero;"/>
                </g>
                <g transform="matrix(0.608791,-0.115386,0.0799087,0.879078,347.458,193.476)">
                    <path d="M1047.04,599.886C1048.02,599.886 1048.79,600.097 1049.33,600.518C1049.87,600.94 1050.14,601.569 1050.14,602.405C1050.14,603.468 1049.7,604.202 1048.83,604.605L1050.2,607.223C1050.22,607.267 1050.23,607.307 1050.23,607.344C1050.23,607.41 1050.21,607.467 1050.16,607.514C1050.11,607.562 1050.05,607.586 1049.99,607.586L1048.49,607.586C1048.36,607.586 1048.26,607.558 1048.19,607.503C1048.13,607.448 1048.07,607.377 1048.03,607.289L1046.81,604.935L1045.8,604.935L1045.8,607.289C1045.8,607.37 1045.77,607.439 1045.71,607.498C1045.65,607.557 1045.58,607.586 1045.5,607.586L1044.06,607.586C1043.98,607.586 1043.91,607.557 1043.85,607.498C1043.79,607.439 1043.76,607.37 1043.76,607.289L1043.76,600.183C1043.76,600.102 1043.79,600.033 1043.85,599.974C1043.91,599.915 1043.98,599.886 1044.06,599.886L1047.04,599.886ZM1047.04,603.219C1047.75,603.219 1048.11,602.948 1048.11,602.405C1048.11,601.862 1047.75,601.591 1047.04,601.591L1045.8,601.591L1045.8,603.219L1047.04,603.219Z" style="fill:rgb(219,168,124);fill-rule:nonzero;"/>
                </g>
                <g transform="matrix(0.611777,-0.0755931,0.0523507,0.88339,361.198,150.325)">
                    <path d="M1058.73,603.022L1061.88,603.022C1061.96,603.022 1062.03,602.993 1062.09,602.934C1062.15,602.876 1062.18,602.806 1062.18,602.725L1062.18,601.559C1062.18,601.479 1062.15,601.409 1062.09,601.35C1062.03,601.292 1061.96,601.262 1061.88,601.262L1058.73,601.262L1058.73,600.074L1062.12,600.074C1062.2,600.074 1062.27,600.045 1062.33,599.986C1062.39,599.928 1062.42,599.858 1062.42,599.777L1062.42,598.611C1062.42,598.531 1062.39,598.461 1062.33,598.402C1062.27,598.344 1062.2,598.314 1062.12,598.314L1057,598.314C1056.92,598.314 1056.85,598.344 1056.79,598.402C1056.73,598.461 1056.7,598.531 1056.7,598.611L1056.7,605.717C1056.7,605.798 1056.73,605.868 1056.79,605.926C1056.85,605.985 1056.92,606.014 1057,606.014L1062.21,606.014C1062.29,606.014 1062.36,605.985 1062.42,605.926C1062.48,605.868 1062.51,605.798 1062.51,605.717L1062.51,604.551C1062.51,604.471 1062.48,604.401 1062.42,604.342C1062.36,604.284 1062.29,604.254 1062.21,604.254L1058.73,604.254L1058.73,603.022Z" style="fill:rgb(219,168,124);fill-rule:nonzero;"/>
                </g>
                <g transform="matrix(0.613862,-0.0196627,0.0136171,0.8864,382.491,89.8331)">
                    <path d="M1082.1,597.032C1082.18,597.032 1082.25,597.061 1082.31,597.12C1082.36,597.179 1082.39,597.248 1082.39,597.329L1082.39,598.495C1082.39,598.576 1082.36,598.645 1082.31,598.704C1082.25,598.763 1082.18,598.792 1082.1,598.792L1080.16,598.792L1080.16,604.435C1080.16,604.516 1080.13,604.585 1080.07,604.644C1080.01,604.703 1079.94,604.732 1079.86,604.732L1078.42,604.732C1078.34,604.732 1078.27,604.703 1078.21,604.644C1078.15,604.585 1078.13,604.516 1078.13,604.435L1078.13,598.792L1076.19,598.792C1076.11,598.792 1076.04,598.763 1075.98,598.704C1075.92,598.645 1075.89,598.576 1075.89,598.495L1075.89,597.329C1075.89,597.248 1075.92,597.179 1075.98,597.12C1076.04,597.061 1076.11,597.032 1076.19,597.032L1082.1,597.032Z" style="fill:rgb(219,168,124);fill-rule:nonzero;"/>
                </g>
                <g transform="matrix(0.613923,0.0151894,-0.0105192,0.886488,397.02,52.1006)">
                    <path d="M1091.95,596.748C1092.65,596.748 1093.25,596.88 1093.75,597.144C1094.26,597.408 1094.65,597.766 1094.92,598.217C1095.2,598.668 1095.35,599.172 1095.38,599.729C1095.4,599.935 1095.4,600.265 1095.4,600.719C1095.4,601.167 1095.4,601.489 1095.38,601.687C1095.35,602.245 1095.2,602.749 1094.92,603.2C1094.65,603.651 1094.26,604.008 1093.75,604.272C1093.25,604.536 1092.65,604.668 1091.95,604.668C1091.25,604.668 1090.65,604.536 1090.14,604.272C1089.64,604.008 1089.25,603.651 1088.97,603.2C1088.7,602.749 1088.55,602.245 1088.52,601.687C1088.5,601.291 1088.5,600.969 1088.5,600.719C1088.5,600.47 1088.5,600.14 1088.52,599.729C1088.55,599.172 1088.7,598.668 1088.97,598.217C1089.25,597.766 1089.64,597.408 1090.14,597.144C1090.65,596.88 1091.25,596.748 1091.95,596.748ZM1093.35,599.784C1093.31,599.396 1093.18,599.086 1092.94,598.855C1092.71,598.624 1092.38,598.508 1091.95,598.508C1091.52,598.508 1091.18,598.624 1090.95,598.855C1090.72,599.086 1090.59,599.396 1090.55,599.784C1090.53,600.026 1090.52,600.331 1090.52,600.697C1090.52,601.057 1090.53,601.368 1090.55,601.632C1090.59,602.021 1090.72,602.331 1090.95,602.562C1091.18,602.793 1091.52,602.908 1091.95,602.908C1092.38,602.908 1092.71,602.793 1092.94,602.562C1093.18,602.331 1093.31,602.021 1093.35,601.632C1093.37,601.368 1093.38,601.057 1093.38,600.697C1093.38,600.331 1093.37,600.026 1093.35,599.784Z" style="fill:rgb(219,168,124);fill-rule:nonzero;"/>
                </g>
                <g transform="matrix(0.611801,0.0751992,-0.052078,0.883424,424.542,-12.9131)">
                    <path d="M1115.97,597.649C1116.06,597.649 1116.12,597.678 1116.18,597.737C1116.24,597.795 1116.27,597.865 1116.27,597.946L1116.27,605.052C1116.27,605.132 1116.24,605.202 1116.18,605.261C1116.12,605.319 1116.06,605.349 1115.97,605.349L1114.53,605.349C1114.45,605.349 1114.38,605.319 1114.32,605.261C1114.27,605.202 1114.24,605.132 1114.24,605.052L1114.24,602.357L1111.79,602.357L1111.79,605.052C1111.79,605.132 1111.77,605.202 1111.71,605.261C1111.65,605.319 1111.58,605.349 1111.5,605.349L1110.06,605.349C1109.98,605.349 1109.91,605.321 1109.85,605.266C1109.79,605.211 1109.76,605.14 1109.76,605.052L1109.76,597.946C1109.76,597.865 1109.79,597.795 1109.85,597.737C1109.91,597.678 1109.98,597.649 1110.06,597.649L1111.5,597.649C1111.58,597.649 1111.65,597.678 1111.71,597.737C1111.77,597.795 1111.79,597.865 1111.79,597.946L1111.79,600.597L1114.24,600.597L1114.24,597.946C1114.24,597.865 1114.27,597.795 1114.32,597.737C1114.38,597.678 1114.45,597.649 1114.53,597.649L1115.97,597.649Z" style="fill:rgb(219,168,124);fill-rule:nonzero;"/>
                </g>
                <g transform="matrix(0.608713,0.116239,-0.0804991,0.878966,445.343,-57.2728)">
                    <path d="M1125.18,603.625L1128.33,603.625C1128.4,603.625 1128.48,603.596 1128.53,603.537C1128.59,603.478 1128.62,603.409 1128.62,603.328L1128.62,602.162C1128.62,602.081 1128.59,602.012 1128.53,601.953C1128.48,601.894 1128.4,601.865 1128.33,601.865L1125.18,601.865L1125.18,600.677L1128.57,600.677C1128.65,600.677 1128.72,600.648 1128.78,600.589C1128.83,600.53 1128.86,600.461 1128.86,600.38L1128.86,599.214C1128.86,599.133 1128.83,599.064 1128.78,599.005C1128.72,598.946 1128.65,598.917 1128.57,598.917L1123.44,598.917C1123.36,598.917 1123.29,598.946 1123.23,599.005C1123.17,599.064 1123.14,599.133 1123.14,599.214L1123.14,606.32C1123.14,606.401 1123.17,606.47 1123.23,606.529C1123.29,606.588 1123.36,606.617 1123.44,606.617L1128.65,606.617C1128.74,606.617 1128.81,606.588 1128.86,606.529C1128.92,606.47 1128.95,606.401 1128.95,606.32L1128.95,605.154C1128.95,605.073 1128.92,605.004 1128.86,604.945C1128.81,604.886 1128.74,604.857 1128.65,604.857L1125.18,604.857L1125.18,603.625Z" style="fill:rgb(219,168,124);fill-rule:nonzero;"/>
                </g>
                <g transform="matrix(0.603945,0.159899,-0.110736,0.872081,469.356,-104.05)">
                    <path d="M1140.89,606.614C1140.97,606.614 1141.04,606.643 1141.1,606.702C1141.16,606.761 1141.18,606.83 1141.18,606.911L1141.18,608.077C1141.18,608.158 1141.16,608.227 1141.1,608.286C1141.04,608.345 1140.97,608.374 1140.89,608.374L1135.8,608.374C1135.71,608.374 1135.64,608.345 1135.59,608.286C1135.53,608.227 1135.5,608.158 1135.5,608.077L1135.5,600.971C1135.5,600.89 1135.53,600.821 1135.59,600.762C1135.64,600.703 1135.71,600.674 1135.8,600.674L1137.24,600.674C1137.32,600.674 1137.39,600.703 1137.44,600.762C1137.5,600.821 1137.53,600.89 1137.53,600.971L1137.53,606.614L1140.89,606.614Z" style="fill:rgb(219,168,124);fill-rule:nonzero;"/>
                </g>
                <g transform="matrix(0.596365,0.211041,-0.146153,0.861135,500.045,-157.853)">
                    <path d="M1150.74,602.956C1151.69,602.956 1152.43,603.174 1152.97,603.61C1153.51,604.047 1153.78,604.686 1153.78,605.53C1153.78,606.373 1153.51,607.015 1152.97,607.455C1152.43,607.895 1151.69,608.115 1150.74,608.115L1149.33,608.115L1149.33,610.359C1149.33,610.439 1149.3,610.509 1149.24,610.568C1149.18,610.626 1149.11,610.656 1149.03,610.656L1147.59,610.656C1147.51,610.656 1147.44,610.626 1147.38,610.568C1147.32,610.509 1147.29,610.439 1147.29,610.359L1147.29,603.253C1147.29,603.172 1147.32,603.102 1147.38,603.044C1147.44,602.985 1147.51,602.956 1147.59,602.956L1150.74,602.956ZM1150.68,606.399C1151,606.399 1151.26,606.327 1151.46,606.184C1151.65,606.041 1151.75,605.823 1151.75,605.53C1151.75,605.236 1151.65,605.018 1151.46,604.875C1151.26,604.732 1151,604.661 1150.68,604.661L1149.33,604.661L1149.33,606.399L1150.68,606.399Z" style="fill:rgb(219,168,124);fill-rule:nonzero;"/>
                </g>
            </g>
            <g transform="matrix(-0.865498,-1.05993e-16,1.05993e-16,-0.865498,2273.61,1085.19)">
                <path d="M989.833,638.711C988.811,638.588 989.252,636.473 989.566,634.817C991.094,626.752 998.014,620.521 1004.84,616.371C1004.84,616.371 1006.94,616.518 1005.03,617.69C997.621,622.294 990.51,628.966 990.484,638.1C990.484,638.1 990.374,638.712 989.833,638.711Z" style="fill:rgb(219,168,124);fill-rule:nonzero;"/>
            </g>
            <g transform="matrix(0.865498,2.11986e-16,-2.11986e-16,0.865498,444.852,-27.7679)">
                <path d="M1057.9,603.965C1069.25,604.001 1080.58,605.328 1091.5,608.438C1092.45,608.711 1093.3,609.191 1092.71,609.751C1092.37,610.077 1091.74,609.784 1091.16,609.619C1069.62,603.511 1046.47,603.702 1025.06,609.431C1025.06,609.431 1024.23,609.764 1023.92,609.3C1023.26,608.287 1026.18,607.843 1028.53,607.296C1038.13,605.062 1047.92,603.954 1057.9,603.965Z" style="fill:rgb(219,168,124);fill-rule:nonzero;"/>
            </g>
            <g transform="matrix(-0.865498,-1.05993e-16,1.05993e-16,-0.865498,2280.53,1085.19)">
                <path d="M1125.23,638.703C1124.59,638.553 1124.72,638.058 1124.71,637.653C1124.46,629.111 1117.2,622.067 1110.24,617.73C1110.24,617.73 1109.44,615.778 1111.32,616.96C1118.89,621.778 1125.88,628.582 1125.95,638.002C1125.95,638.002 1125.85,638.774 1125.23,638.703Z" style="fill:rgb(219,168,124);fill-rule:nonzero;"/>
            </g>
            <g transform="matrix(0.611999,0.611999,-0.611999,0.611999,1026.37,-379.449)">
                <path d="M965.381,507.485C965.565,507.344 965.583,507.35 965.775,507.341L974.311,507.341C974.648,507.356 974.911,507.617 974.925,507.955L974.925,516.491C974.911,516.828 974.65,517.09 974.311,517.105L965.775,517.105C965.439,517.09 965.176,516.83 965.161,516.491L965.161,507.955C965.173,507.691 965.168,507.679 965.381,507.485ZM966.389,515.877L973.697,515.877L973.697,508.569L966.389,508.569C966.389,511.005 966.389,513.441 966.389,515.877Z" style="fill:rgb(219,168,124);fill-rule:nonzero;"/>
            </g>
            <g transform="matrix(0.611999,0.611999,-0.611999,0.611999,1136.69,-379.449)">
                <path d="M965.381,507.485C965.565,507.344 965.583,507.35 965.775,507.341L974.311,507.341C974.648,507.356 974.911,507.617 974.925,507.955L974.925,516.491C974.911,516.828 974.65,517.09 974.311,517.105L965.775,517.105C965.439,517.09 965.176,516.83 965.161,516.491L965.161,507.955C965.173,507.691 965.168,507.679 965.381,507.485ZM966.389,515.877L973.697,515.877L973.697,508.569L966.389,508.569C966.389,511.005 966.389,513.441 966.389,515.877Z" style="fill:rgb(219,168,124);fill-rule:nonzero;"/>
            </g>
            <g transform="matrix(0.867046,0,0,0.865498,457.746,74.8613)">
                <path d="M1041.79,467.399C1042.24,467.532 1042.42,468.061 1042.1,468.435L1029.21,481.325C1028.95,481.549 1028.88,481.509 1028.7,481.5L997.798,477.745C997.798,477.745 1004.36,491.38 1004.36,491.38C1004.57,492.371 1003.52,492.348 1002.75,492.707C1000.5,493.764 998.095,494.659 996.085,496.015C996.085,496.015 995.798,496.301 995.488,496.246C993.981,495.976 995.748,494.738 997.557,493.837C999.104,493.066 1000.67,492.328 1002.23,491.594L1002.95,491.261L996.207,477.267C996.042,476.837 996.346,476.372 996.833,476.39L1028.55,480.245C1028.55,480.245 1041.31,467.5 1041.31,467.5C1041.45,467.415 1041.62,467.377 1041.79,467.399ZM996.164,495.869C996.21,495.759 996.174,495.84 996.164,495.869ZM996.19,495.791C996.233,495.629 996.197,495.749 996.19,495.791Z" style="fill:rgb(219,168,124);fill-rule:nonzero;"/>
            </g>
            <g transform="matrix(-0.853716,0,0,0.865498,2250.21,74.8613)">
                <path d="M1041.59,467.391C1041.45,467.42 1041.33,467.479 1041.22,467.569L1028.55,480.245C1028.55,480.245 996.733,476.387 996.733,476.387C996.06,476.469 996.089,476.979 996.195,477.26L1002.95,491.558C1000.62,492.697 998.279,493.804 995.996,495.022C995.307,495.39 995.376,496.744 996.758,496.012C999.075,494.806 1001.43,493.672 1003.78,492.524C1003.78,492.524 1004.59,492.239 1004.34,491.583L997.798,477.745C997.798,477.745 1028.79,481.505 1028.79,481.505C1028.95,481.488 1029.1,481.428 1029.22,481.322L1042.11,468.431C1042.44,468.038 1042.23,467.361 1041.59,467.391Z" style="fill:rgb(219,168,124);fill-rule:nonzero;"/>
            </g>
        </g>
    </g>
</svg>
