<?xml version="1.0" encoding="UTF-8" standalone="no"?>
<!DOCTYPE svg PUBLIC "-//W3C//DTD SVG 1.1//EN" "http://www.w3.org/Graphics/SVG/1.1/DTD/svg11.dtd">
<svg width="100%" height="100%" viewBox="0 0 271 271" version="1.1" xmlns="http://www.w3.org/2000/svg" xmlns:xlink="http://www.w3.org/1999/xlink" xml:space="preserve" xmlns:serif="http://www.serif.com/" style="fill-rule:evenodd;clip-rule:evenodd;stroke-linejoin:round;stroke-miterlimit:1.41421;">
    <g transform="matrix(1,0,0,1,-1289,-452)">
        <g id="Artboard4" transform="matrix(1.88173,0,0,1.88173,-1138,-399.432)">
            <rect x="1289.78" y="452.474" width="144" height="144" style="fill:none;"/>
            <g transform="matrix(0.543421,0,0,0.543421,934.769,237.358)">
                <path d="M786.094,429.86C828.782,430.061 869.691,460.314 881.009,503.158C887.354,527.182 884.195,553.521 872.37,575.28C852.726,611.427 809.164,632.867 767.746,625.189C727.975,617.817 694.257,584.072 688.285,542.421C685.391,522.231 688.908,501.133 698.341,482.997C714.748,451.454 749.018,430.258 784.821,429.864C785.245,429.86 785.67,429.859 786.094,429.86ZM785.463,431.816C761.393,431.929 737.642,441.295 720.03,457.69C705.099,471.589 694.698,490.305 690.914,510.38C683.958,547.282 700.421,587.581 732.544,608.873C763.334,629.281 805.997,630.059 837.789,609.667C861.287,594.595 877.756,568.901 881.454,541.241C885.564,510.503 873.944,478.062 850.668,456.905C833.071,440.91 809.478,431.778 785.463,431.816Z" style="fill:rgb(219,168,124);fill-rule:nonzero;"/>
            </g>
            <g transform="matrix(0.459463,0,0,0.459463,1000.74,281.717)">
                <path d="M849.673,601.215C850.378,601.37 850.663,602.238 850.126,602.772C836.669,614.376 820.025,622.282 802.537,625.328C802.537,625.328 801.735,625.334 801.537,624.726C801.377,624.237 801.71,623.701 802.231,623.571C819.099,620.633 835.11,613.17 848.349,601.948L849.064,601.346C849.239,601.251 849.233,601.182 849.673,601.215Z" style="fill:rgb(219,168,124);fill-rule:nonzero;"/>
            </g>
            <g transform="matrix(0.459463,0,0,0.459463,1000.74,281.717)">
                <path d="M722.21,601.283C722.504,601.345 722.523,601.382 722.668,601.49C736.013,612.973 752.449,620.713 769.755,623.645C769.755,623.645 770.113,623.737 770.294,623.957C770.744,624.503 770.269,625.481 769.457,625.403C751.922,622.432 735.035,614.484 721.505,602.841C721.505,602.841 721.299,602.645 721.232,602.42C721.062,601.849 721.539,601.237 722.21,601.283Z" style="fill:rgb(219,168,124);fill-rule:nonzero;"/>
            </g>
            <g transform="matrix(0.375702,0,0,0.375702,1066.56,325.972)">
                <path d="M786.415,429.425C822.399,429.769 857.082,451.053 873.597,482.795C887.631,509.768 888.216,543.258 875.199,570.682C856.63,609.8 810.609,634.142 766.454,625.386C736.496,619.445 709.896,598.777 696.611,571.223C683.494,544.016 683.816,510.781 697.408,483.861C713.734,451.523 748.958,429.771 785.136,429.425C785.562,429.423 785.989,429.423 786.415,429.425ZM785.154,432.254C749.829,432.592 715.786,453.737 699.933,485.136C686.718,511.31 686.441,543.615 699.16,569.994C717.304,607.629 761.485,630.87 803.958,622.726C833.483,617.064 859.748,596.634 872.643,569.468C885.278,542.85 884.713,510.289 871.087,484.101C855.031,453.24 821.556,432.59 786.397,432.254C785.983,432.252 785.568,432.252 785.154,432.254Z" style="fill:rgb(219,168,124);fill-rule:nonzero;"/>
            </g>
            <g transform="matrix(0.0718584,0.428679,-0.428679,0.0718584,1531.8,149.663)">
                <g transform="matrix(-1.11219,0.507793,-0.507793,-1.11219,2021.6,852.713)">
                    <path d="M809.204,572.309C809.96,572.309 810.595,572.428 811.108,572.666C811.621,572.904 812.006,573.235 812.263,573.66C812.52,574.085 812.648,574.577 812.648,575.137C812.648,575.716 812.517,576.234 812.256,576.691C811.995,577.148 811.598,577.51 811.066,577.776C810.534,578.042 809.885,578.175 809.12,578.175L807.706,578.175L807.706,581.381L806.11,581.381L806.11,572.309L809.204,572.309ZM808.98,576.859C810.324,576.859 810.996,576.304 810.996,575.193C810.996,574.68 810.842,574.29 810.534,574.024C810.226,573.758 809.773,573.625 809.176,573.625L807.706,573.625L807.706,576.859L808.98,576.859Z" style="fill:rgb(219,168,124);fill-rule:nonzero;"/>
                </g>
                <g transform="matrix(-1.16459,0.372222,-0.372222,-1.16459,1965.22,1005.1)">
                    <path d="M798.817,584.022L803.143,584.022L803.143,585.352L797.221,585.352L797.221,576.28L803.073,576.28L803.073,577.596L798.817,577.596L798.817,580.088L802.513,580.088L802.331,581.376L798.817,581.376L798.817,584.022Z" style="fill:rgb(219,168,124);fill-rule:nonzero;"/>
                </g>
                <g transform="matrix(-1.20198,0.223725,-0.223725,-1.20198,1886.91,1154.06)">
                    <path d="M795.177,588.071L795.177,588.169L793.371,588.169L790.921,584.739L789.829,584.739L789.829,588.169L788.233,588.169L788.233,579.097L791.229,579.097C791.975,579.097 792.603,579.214 793.112,579.447C793.62,579.681 794.003,580.003 794.26,580.413C794.516,580.824 794.645,581.3 794.645,581.841C794.645,582.485 794.47,583.048 794.12,583.528C793.77,584.009 793.259,584.347 792.587,584.543L795.177,588.071ZM789.829,583.479L791.033,583.479C791.667,583.479 792.153,583.346 792.489,583.08C792.825,582.814 792.993,582.42 792.993,581.897C792.993,581.412 792.841,581.043 792.538,580.791C792.234,580.539 791.793,580.413 791.215,580.413L789.829,580.413L789.829,583.479Z" style="fill:rgb(219,168,124);fill-rule:nonzero;"/>
                </g>
                <g transform="matrix(-1.21957,0.0863726,-0.0863726,-1.21957,1796.54,1277.53)">
                    <path d="M781.255,590.062C780.564,590.062 779.934,589.969 779.365,589.782C778.795,589.596 778.291,589.334 777.853,588.998L778.595,587.878C779.005,588.168 779.435,588.38 779.883,588.515C780.331,588.651 780.76,588.718 781.171,588.718C781.787,588.718 782.258,588.613 782.585,588.403C782.911,588.193 783.075,587.878 783.075,587.458C783.075,587.206 783.019,586.996 782.907,586.828C782.795,586.66 782.603,586.506 782.333,586.366C782.062,586.226 781.67,586.063 781.157,585.876L780.891,585.778C780.293,585.554 779.815,585.34 779.456,585.134C779.096,584.929 778.805,584.661 778.581,584.329C778.357,583.998 778.245,583.58 778.245,583.076C778.245,582.535 778.396,582.08 778.7,581.711C779.003,581.343 779.397,581.07 779.883,580.892C780.368,580.715 780.886,580.626 781.437,580.626C782.575,580.626 783.616,580.944 784.559,581.578L783.826,582.698C783.404,582.437 783.007,582.246 782.636,582.124C782.265,582.003 781.855,581.942 781.404,581.942C780.925,581.942 780.545,582.033 780.263,582.215C779.981,582.397 779.841,582.666 779.841,583.02C779.841,583.216 779.892,583.387 779.995,583.531C780.099,583.676 780.277,583.818 780.53,583.958C780.784,584.098 781.145,584.252 781.615,584.42L781.896,584.518C782.507,584.733 782.999,584.941 783.375,585.141C783.75,585.342 784.069,585.622 784.332,585.981C784.595,586.341 784.727,586.805 784.727,587.374C784.727,587.953 784.58,588.445 784.286,588.851C783.992,589.257 783.586,589.561 783.068,589.761C782.55,589.962 781.945,590.062 781.255,590.062Z" style="fill:rgb(219,168,124);fill-rule:nonzero;"/>
                </g>
                <g transform="matrix(-1.22041,-0.0735797,0.0735797,-1.22041,1679.9,1403.22)">
                    <path d="M773.072,590.685C772.138,590.685 771.345,590.486 770.692,590.09C770.038,589.693 769.546,589.138 769.215,588.424C768.883,587.71 768.718,586.881 768.718,585.939C768.718,584.893 768.918,584.018 769.32,583.314C769.721,582.609 770.258,582.089 770.93,581.753C771.602,581.417 772.348,581.249 773.17,581.249C774.103,581.249 774.896,581.447 775.55,581.844C776.203,582.24 776.693,582.796 777.02,583.51C777.346,584.224 777.51,585.052 777.51,585.995C777.51,587.04 777.309,587.915 776.908,588.62C776.506,589.324 775.972,589.845 775.305,590.181C774.637,590.517 773.893,590.685 773.072,590.685ZM773.072,589.355C773.678,589.355 774.192,589.215 774.612,588.935C775.032,588.655 775.344,588.265 775.55,587.766C775.755,587.266 775.858,586.681 775.858,586.009C775.858,585.318 775.76,584.716 775.564,584.203C775.368,583.689 775.069,583.29 774.668,583.006C774.266,582.721 773.767,582.579 773.17,582.579C772.554,582.579 772.036,582.719 771.616,582.999C771.196,583.279 770.883,583.668 770.678,584.168C770.472,584.667 770.37,585.253 770.37,585.925C770.37,586.979 770.598,587.815 771.056,588.431C771.513,589.047 772.185,589.355 773.072,589.355Z" style="fill:rgb(219,168,124);fill-rule:nonzero;"/>
                </g>
                <g transform="matrix(-1.19659,-0.25099,0.25099,-1.19659,1528.72,1520.46)">
                    <path d="M765.212,580.593L765.212,589.665L763.406,589.665L759.997,584.513C759.952,584.438 759.863,584.301 759.73,584.1C759.598,583.899 759.479,583.708 759.374,583.526C759.269,583.344 759.176,583.16 759.094,582.973L759.094,589.665L757.498,589.665L757.498,580.593L759.248,580.593L762.821,585.997C762.867,586.062 762.949,586.186 763.068,586.368C763.187,586.55 763.292,586.718 763.383,586.872C763.474,587.026 763.552,587.178 763.616,587.327L763.616,580.593L765.212,580.593Z" style="fill:rgb(219,168,124);fill-rule:nonzero;"/>
                </g>
                <g transform="matrix(-1.14911,-0.417574,0.417574,-1.14911,1368.72,1607.72)">
                    <path d="M750.588,578.057L753.934,587.031L753.934,587.129L752.254,587.129L751.4,584.721L747.76,584.721L746.92,587.129L745.282,587.129L745.282,587.031L748.614,578.057L750.588,578.057ZM748.208,583.433L750.938,583.433L749.566,579.541L748.208,583.433Z" style="fill:rgb(219,168,124);fill-rule:nonzero;"/>
                </g>
                <g transform="matrix(-1.08529,-0.562987,0.562987,-1.08529,1214.6,1664.05)">
                    <path d="M737.628,581.909L741.94,581.909L741.94,583.295L736.032,583.295L736.032,574.223L737.628,574.223L737.628,581.909Z" style="fill:rgb(219,168,124);fill-rule:nonzero;"/>
                </g>
                <g transform="matrix(-0.962071,-0.754478,0.754478,-0.962071,990.851,1708.71)">
                    <path d="M726.68,567.358C728.238,567.358 729.438,567.71 730.278,568.415C731.118,569.12 731.538,570.279 731.538,571.894C731.538,572.911 731.321,573.758 730.887,574.435C730.453,575.112 729.858,575.613 729.102,575.94C728.346,576.267 727.487,576.43 726.526,576.43L723.824,576.43L723.824,567.358L726.68,567.358ZM726.299,575.072C727.102,575.072 727.761,574.983 728.277,574.806C728.792,574.629 729.189,574.309 729.468,573.847C729.746,573.385 729.886,572.734 729.886,571.894C729.886,570.774 729.628,569.964 729.113,569.465C728.598,568.966 727.802,568.716 726.724,568.716L725.42,568.716L725.42,575.072L726.299,575.072Z" style="fill:rgb(219,168,124);fill-rule:nonzero;"/>
                </g>
                <g transform="matrix(-0.858717,-0.870301,0.870301,-0.858717,837.434,1710.82)">
                    <path d="M716.766,568.141L721.092,568.141L721.092,569.471L715.17,569.471L715.17,560.399L721.022,560.399L721.022,561.715L716.766,561.715L716.766,564.207L720.462,564.207L720.28,565.495L716.766,565.495L716.766,568.141Z" style="fill:rgb(219,168,124);fill-rule:nonzero;"/>
                </g>
                <g transform="matrix(-0.754119,-0.962353,0.962353,-0.754119,703.888,1697.32)">
                    <path d="M711.297,562.89C710.607,562.89 709.977,562.796 709.407,562.61C708.838,562.423 708.334,562.162 707.895,561.826L708.637,560.706C709.048,560.995 709.477,561.207 709.925,561.343C710.373,561.478 710.803,561.546 711.213,561.546C711.829,561.546 712.301,561.441 712.627,561.231C712.954,561.021 713.117,560.706 713.117,560.286C713.117,560.034 713.061,559.824 712.949,559.656C712.837,559.488 712.646,559.334 712.375,559.194C712.105,559.054 711.713,558.89 711.199,558.704L710.933,558.606C710.336,558.382 709.858,558.167 709.498,557.962C709.139,557.756 708.847,557.488 708.623,557.157C708.399,556.825 708.287,556.408 708.287,555.904C708.287,555.362 708.439,554.907 708.742,554.539C709.046,554.17 709.44,553.897 709.925,553.72C710.411,553.542 710.929,553.454 711.479,553.454C712.618,553.454 713.659,553.771 714.601,554.406L713.869,555.526C713.447,555.264 713.05,555.073 712.679,554.952C712.308,554.83 711.897,554.77 711.447,554.77C710.968,554.77 710.588,554.861 710.306,555.043C710.024,555.225 709.883,555.493 709.883,555.848C709.883,556.044 709.935,556.214 710.038,556.359C710.142,556.503 710.32,556.646 710.573,556.786C710.827,556.926 711.188,557.08 711.658,557.248L711.939,557.346C712.549,557.56 713.042,557.768 713.418,557.969C713.793,558.169 714.112,558.449 714.375,558.809C714.638,559.168 714.769,559.632 714.769,560.202C714.769,560.78 714.622,561.273 714.328,561.679C714.034,562.085 713.628,562.388 713.11,562.589C712.592,562.789 711.988,562.89 711.297,562.89Z" style="fill:rgb(219,168,124);fill-rule:nonzero;"/>
                </g>
                <g transform="matrix(-0.659285,-1.02964,1.02964,-0.659285,595.977,1671.35)">
                    <rect x="702.893" y="546.025" width="1.596" height="9.072" style="fill:rgb(219,168,124);fill-rule:nonzero;"/>
                </g>
                <g transform="matrix(-0.551834,-1.09101,1.09101,-0.551834,486.208,1643.26)">
                    <path d="M707.077,545.356L707.077,549.822C706.489,550.112 705.938,550.322 705.425,550.452C704.911,550.583 704.351,550.648 703.745,550.648C702.727,550.648 701.897,550.448 701.253,550.046C700.609,549.645 700.137,549.097 699.839,548.401C699.54,547.706 699.391,546.892 699.391,545.958C699.391,544.866 699.589,543.966 699.986,543.256C700.382,542.547 700.912,542.029 701.575,541.702C702.237,541.376 702.979,541.212 703.801,541.212C704.949,541.212 705.966,541.492 706.853,542.052L706.179,543.228C705.477,542.78 704.719,542.556 703.906,542.556C702.923,542.556 702.2,542.85 701.737,543.438C701.274,544.026 701.043,544.843 701.043,545.888C701.043,546.999 701.26,547.841 701.696,548.415C702.131,548.989 702.836,549.276 703.809,549.276C704.38,549.276 704.937,549.178 705.481,548.982L705.481,546.672L703.325,546.672L703.507,545.356L707.077,545.356Z" style="fill:rgb(219,168,124);fill-rule:nonzero;"/>
                </g>
                <g transform="matrix(-0.391535,-1.15824,1.15824,-0.391535,340.671,1580.86)">
                    <path d="M702.815,531.721L702.815,540.793L701.009,540.793L697.6,535.641C697.555,535.567 697.466,535.429 697.333,535.228C697.201,535.028 697.082,534.836 696.977,534.654C696.872,534.472 696.779,534.288 696.697,534.101L696.697,540.793L695.101,540.793L695.101,531.721L696.851,531.721L700.425,537.125C700.47,537.191 700.552,537.314 700.671,537.496C700.79,537.678 700.895,537.846 700.986,538C701.077,538.154 701.155,538.306 701.219,538.455L701.219,531.721L702.815,531.721Z" style="fill:rgb(219,168,124);fill-rule:nonzero;"/>
                </g>
                <g transform="matrix(-0.147665,-1.21368,1.21368,-0.147665,154.499,1459.94)">
                    <path d="M694.914,515.739L698.26,524.713L698.26,524.811L696.58,524.811L695.726,522.403L692.086,522.403L691.246,524.811L689.608,524.811L689.608,524.713L692.94,515.739L694.914,515.739ZM692.534,521.115L695.264,521.115L693.892,517.223L692.534,521.115Z" style="fill:rgb(219,168,124);fill-rule:nonzero;"/>
                </g>
                <g transform="matrix(0.0222912,-1.22242,1.22242,0.0222912,44.4454,1362.37)">
                    <path d="M696.979,504.975L696.979,514.047L695.173,514.047L691.765,508.895C691.719,508.821 691.63,508.683 691.498,508.482C691.365,508.282 691.247,508.09 691.142,507.908C691.037,507.726 690.943,507.542 690.861,507.355L690.861,514.047L689.265,514.047L689.265,504.975L691.015,504.975L694.589,510.379C694.635,510.445 694.717,510.568 694.835,510.75C694.954,510.932 695.059,511.1 695.15,511.254C695.242,511.408 695.319,511.56 695.383,511.709L695.383,504.975L696.979,504.975Z" style="fill:rgb(219,168,124);fill-rule:nonzero;"/>
                </g>
                <g transform="matrix(0.198658,-1.20638,1.20638,0.198658,-54.3185,1249.18)">
                    <path d="M692.458,493.356C694.016,493.356 695.216,493.708 696.056,494.413C696.896,495.118 697.316,496.277 697.316,497.892C697.316,498.909 697.099,499.756 696.665,500.433C696.231,501.11 695.636,501.611 694.88,501.938C694.124,502.265 693.265,502.428 692.304,502.428L689.602,502.428L689.602,493.356L692.458,493.356ZM692.077,501.07C692.88,501.07 693.539,500.981 694.054,500.804C694.57,500.627 694.967,500.307 695.245,499.845C695.524,499.383 695.664,498.732 695.664,497.892C695.664,496.772 695.406,495.962 694.891,495.463C694.376,494.964 693.579,494.714 692.502,494.714L691.198,494.714L691.198,501.07L692.077,501.07Z" style="fill:rgb(219,168,124);fill-rule:nonzero;"/>
                </g>
                <g transform="matrix(0.433018,-1.14338,1.14338,0.433018,-163.373,1079.31)">
                    <path d="M697.314,477.553L700.66,486.527L700.66,486.625L698.98,486.625L698.126,484.217L694.486,484.217L693.646,486.625L692.008,486.625L692.008,486.527L695.34,477.553L697.314,477.553ZM694.934,482.929L697.664,482.929L696.292,479.037L694.934,482.929Z" style="fill:rgb(219,168,124);fill-rule:nonzero;"/>
                </g>
                <g transform="matrix(0.584264,-1.07399,1.07399,0.584264,-220.915,955.515)">
                    <path d="M703.758,476.462L703.758,476.56L701.952,476.56L699.502,473.13L698.41,473.13L698.41,476.56L696.814,476.56L696.814,467.488L699.81,467.488C700.556,467.488 701.184,467.605 701.693,467.838C702.201,468.071 702.584,468.393 702.841,468.804C703.097,469.215 703.226,469.691 703.226,470.232C703.226,470.876 703.051,471.438 702.701,471.919C702.351,472.4 701.84,472.738 701.168,472.934L703.758,476.462ZM698.41,471.87L699.614,471.87C700.248,471.87 700.734,471.737 701.07,471.471C701.406,471.205 701.574,470.811 701.574,470.288C701.574,469.803 701.422,469.434 701.119,469.182C700.815,468.93 700.374,468.804 699.796,468.804L698.41,468.804L698.41,471.87Z" style="fill:rgb(219,168,124);fill-rule:nonzero;"/>
                </g>
                <g transform="matrix(0.703469,-0.999975,0.999975,0.703469,-257.668,847.496)">
                    <path d="M708.274,459.01L708.274,460.382L705.278,460.382L705.278,468.082L703.682,468.082L703.682,460.382L700.644,460.382L700.644,459.01L708.274,459.01Z" style="fill:rgb(219,168,124);fill-rule:nonzero;"/>
                </g>
                <g transform="matrix(0.851888,-0.876986,0.876986,0.851888,-290.427,695.513)">
                    <rect x="710.587" y="447.313" width="1.596" height="9.072" style="fill:rgb(219,168,124);fill-rule:nonzero;"/>
                </g>
                <g transform="matrix(0.940582,-0.781104,0.781104,0.940582,-305.382,588.847)">
                    <path d="M722.111,443.293L722.111,452.365L720.305,452.365L716.896,447.213C716.85,447.138 716.761,447 716.629,446.8C716.497,446.599 716.378,446.408 716.273,446.226C716.168,446.044 716.075,445.859 715.993,445.673L715.993,452.365L714.397,452.365L714.397,443.293L716.147,443.293L719.72,448.697C719.766,448.762 719.848,448.886 719.967,449.068C720.086,449.25 720.191,449.418 720.282,449.572C720.373,449.726 720.451,449.877 720.515,450.027L720.515,443.293L722.111,443.293Z" style="fill:rgb(219,168,124);fill-rule:nonzero;"/>
                </g>
                <g transform="matrix(1.04355,-0.63705,0.63705,1.04355,-307.382,443.946)">
                    <path d="M731.128,435.968L731.128,445.04L729.322,445.04L725.913,439.888C725.868,439.814 725.779,439.676 725.646,439.475C725.514,439.275 725.395,439.083 725.29,438.901C725.185,438.719 725.092,438.535 725.01,438.348L725.01,445.04L723.414,445.04L723.414,435.968L725.164,435.968L728.738,441.372C728.783,441.438 728.865,441.561 728.984,441.743C729.103,441.925 729.208,442.093 729.299,442.247C729.39,442.401 729.468,442.553 729.532,442.702L729.532,435.968L731.128,435.968Z" style="fill:rgb(219,168,124);fill-rule:nonzero;"/>
                </g>
                <g transform="matrix(1.12556,-0.477428,0.477428,1.12556,-291.767,296.346)">
                    <path d="M737.285,439.261C736.352,439.261 735.559,439.063 734.905,438.666C734.252,438.269 733.76,437.714 733.428,437C733.097,436.286 732.931,435.458 732.931,434.515C732.931,433.47 733.132,432.595 733.533,431.89C733.935,431.185 734.471,430.665 735.143,430.329C735.815,429.993 736.562,429.825 737.383,429.825C738.317,429.825 739.11,430.023 739.763,430.42C740.417,430.817 740.907,431.372 741.233,432.086C741.56,432.8 741.723,433.628 741.723,434.571C741.723,435.616 741.523,436.491 741.121,437.196C740.72,437.901 740.186,438.421 739.518,438.757C738.851,439.093 738.107,439.261 737.285,439.261ZM737.285,437.931C737.892,437.931 738.405,437.791 738.825,437.511C739.245,437.231 739.558,436.841 739.763,436.342C739.969,435.843 740.071,435.257 740.071,434.585C740.071,433.894 739.973,433.292 739.777,432.779C739.581,432.266 739.283,431.867 738.881,431.582C738.48,431.297 737.981,431.155 737.383,431.155C736.767,431.155 736.249,431.295 735.829,431.575C735.409,431.855 735.097,432.245 734.891,432.744C734.686,433.243 734.583,433.829 734.583,434.501C734.583,435.556 734.812,436.391 735.269,437.007C735.727,437.623 736.399,437.931 737.285,437.931Z" style="fill:rgb(219,168,124);fill-rule:nonzero;"/>
                </g>
                <g transform="matrix(1.18022,-0.319201,0.319201,1.18022,-260.502,159.641)">
                    <path d="M749.961,425.688L751.585,425.688L751.585,425.786L748.253,434.76L746.405,434.76L743.073,425.786L743.073,425.688L744.753,425.688L747.357,433.178L749.961,425.688Z" style="fill:rgb(219,168,124);fill-rule:nonzero;"/>
                </g>
                <g transform="matrix(1.2108,-0.169645,0.169645,1.2108,-217.656,36.8333)">
                    <path d="M757.896,423.169L761.242,432.143L761.242,432.241L759.562,432.241L758.708,429.833L755.068,429.833L754.228,432.241L752.59,432.241L752.59,432.143L755.922,423.169L757.896,423.169ZM755.516,428.545L758.246,428.545L756.874,424.653L755.516,428.545Z" style="fill:rgb(219,168,124);fill-rule:nonzero;"/>
                </g>
                <g transform="matrix(1.22218,-0.0329474,0.0329474,1.22218,-167.088,-70.6257)">
                    <path d="M769.651,421.903L769.651,423.275L766.655,423.275L766.655,430.975L765.059,430.975L765.059,423.275L762.021,423.275L762.021,421.903L769.651,421.903Z" style="fill:rgb(219,168,124);fill-rule:nonzero;"/>
                </g>
                <g transform="matrix(1.21982,0.0827535,-0.0827535,1.21982,-115.405,-158.562)">
                    <rect x="772.694" y="421.823" width="1.596" height="9.072" style="fill:rgb(219,168,124);fill-rule:nonzero;"/>
                </g>
                <g transform="matrix(1.2037,0.214282,-0.214282,1.2037,-46.1211,-254.288)">
                    <path d="M782.104,431.381C781.171,431.381 780.377,431.183 779.724,430.786C779.071,430.39 778.578,429.834 778.247,429.12C777.916,428.406 777.75,427.578 777.75,426.635C777.75,425.59 777.951,424.715 778.352,424.01C778.753,423.306 779.29,422.785 779.962,422.449C780.634,422.113 781.381,421.945 782.202,421.945C783.135,421.945 783.929,422.144 784.582,422.54C785.235,422.937 785.725,423.492 786.052,424.206C786.379,424.92 786.542,425.749 786.542,426.691C786.542,427.737 786.341,428.612 785.94,429.316C785.539,430.021 785.004,430.541 784.337,430.877C783.67,431.213 782.925,431.381 782.104,431.381ZM782.104,430.051C782.711,430.051 783.224,429.911 783.644,429.631C784.064,429.351 784.377,428.962 784.582,428.462C784.787,427.963 784.89,427.377 784.89,426.705C784.89,426.015 784.792,425.413 784.596,424.899C784.4,424.386 784.101,423.987 783.7,423.702C783.299,423.418 782.799,423.275 782.202,423.275C781.586,423.275 781.068,423.415 780.648,423.695C780.228,423.975 779.915,424.365 779.71,424.864C779.505,425.364 779.402,425.949 779.402,426.621C779.402,427.676 779.631,428.511 780.088,429.127C780.545,429.743 781.217,430.051 782.104,430.051Z" style="fill:rgb(219,168,124);fill-rule:nonzero;"/>
                </g>
                <g transform="matrix(1.15922,0.388625,-0.388625,1.15922,65.206,-374.936)">
                    <path d="M797.469,424.312L797.469,433.384L795.663,433.384L792.255,428.232C792.209,428.157 792.12,428.02 791.988,427.819C791.856,427.618 791.737,427.427 791.632,427.245C791.527,427.063 791.434,426.879 791.351,426.692L791.351,433.384L789.755,433.384L789.755,424.312L791.505,424.312L795.079,429.716C795.125,429.781 795.207,429.905 795.326,430.087C795.444,430.269 795.549,430.437 795.641,430.591C795.732,430.745 795.81,430.897 795.873,431.046L795.873,424.312L797.469,424.312Z" style="fill:rgb(219,168,124);fill-rule:nonzero;"/>
                </g>
                <g transform="matrix(1.06,0.609279,-0.609279,1.06,245.266,-514.432)">
                    <path d="M806.858,438L811.17,438L811.17,439.386L805.262,439.386L805.262,430.314L806.858,430.314L806.858,438Z" style="fill:rgb(219,168,124);fill-rule:nonzero;"/>
                </g>
                <g transform="matrix(0.980657,0.730158,-0.730158,0.980657,367.338,-581.359)">
                    <path d="M817.46,434.802L820.806,443.776L820.806,443.874L819.126,443.874L818.272,441.466L814.632,441.466L813.792,443.874L812.154,443.874L812.154,443.776L815.486,434.802L817.46,434.802ZM815.08,440.178L817.81,440.178L816.438,436.286L815.08,440.178Z" style="fill:rgb(219,168,124);fill-rule:nonzero;"/>
                </g>
                <g transform="matrix(0.874446,0.854496,-0.854496,0.874446,517.375,-640.243)">
                    <path d="M826.562,445.666C826.982,445.769 827.33,445.934 827.605,446.163C827.88,446.392 828.081,446.651 828.207,446.94C828.333,447.229 828.396,447.533 828.396,447.85C828.396,448.373 828.268,448.828 828.011,449.215C827.754,449.602 827.374,449.903 826.87,450.118C826.366,450.333 825.755,450.44 825.036,450.44L821.634,450.44L821.634,441.368L824.868,441.368C825.54,441.368 826.114,441.468 826.59,441.669C827.066,441.87 827.428,442.147 827.675,442.502C827.922,442.857 828.046,443.267 828.046,443.734C828.046,444.163 827.925,444.548 827.682,444.889C827.439,445.23 827.066,445.489 826.562,445.666ZM823.23,442.656L823.23,445.176L824.685,445.176C825.212,445.176 825.638,445.073 825.963,444.868C826.288,444.663 826.45,444.327 826.45,443.86C826.45,443.496 826.313,443.204 826.04,442.985C825.767,442.766 825.381,442.656 824.882,442.656L823.23,442.656ZM824.98,449.138C825.605,449.138 826.056,449.012 826.331,448.76C826.606,448.508 826.744,448.186 826.744,447.794C826.744,447.374 826.599,447.04 826.31,446.793C826.021,446.546 825.587,446.422 825.008,446.422L823.23,446.422L823.23,449.138L824.98,449.138Z" style="fill:rgb(219,168,124);fill-rule:nonzero;"/>
                </g>
            </g>
            <g transform="matrix(0.71011,0,0,0.71011,751.394,132.688)">
                <path d="M826.582,530.264C825.695,530.264 825.032,530.554 824.594,531.132C824.314,531.496 824.094,531.975 823.936,532.567C823.777,533.16 823.698,533.811 823.698,534.52C823.698,535.192 823.768,535.815 823.908,536.389C824.048,536.963 824.244,537.446 824.496,537.838C824.748,538.23 825.053,538.517 825.413,538.699C825.772,538.881 826.222,538.972 826.764,538.972C827.594,538.972 828.257,538.774 828.752,538.377C829.246,537.981 829.559,537.39 829.69,536.606L830.46,536.606C830.245,537.708 829.825,538.527 829.2,539.063C828.574,539.6 827.716,539.868 826.624,539.868C825.336,539.868 824.309,539.495 823.544,538.748C823.086,538.3 822.736,537.738 822.494,537.061C822.251,536.385 822.13,535.626 822.13,534.786C822.13,533.844 822.284,532.992 822.592,532.231C822.9,531.471 823.334,530.857 823.894,530.39C824.603,529.802 825.541,529.508 826.708,529.508C826.997,529.508 827.256,529.525 827.485,529.557C827.713,529.59 827.926,529.646 828.122,529.725C828.318,529.805 828.502,529.91 828.675,530.04C828.847,530.171 829.022,530.334 829.2,530.53L829.48,529.648L830.25,529.648L830.25,532.742L829.396,532.742C829.125,531.09 828.187,530.264 826.582,530.264Z" style="fill:rgb(219,168,124);fill-rule:nonzero;"/>
                <path d="M841.618,534.576C841.618,535.398 841.496,536.163 841.254,536.872C841.011,537.582 840.666,538.174 840.218,538.65C839.462,539.462 838.384,539.868 836.984,539.868C835.556,539.868 834.478,539.476 833.75,538.692C833.32,538.244 832.989,537.682 832.756,537.005C832.522,536.329 832.406,535.594 832.406,534.8C832.406,533.979 832.527,533.214 832.77,532.504C833.012,531.795 833.358,531.202 833.806,530.726C834.198,530.306 834.653,529.998 835.171,529.802C835.689,529.606 836.302,529.508 837.012,529.508C838.421,529.508 839.504,529.9 840.26,530.684C840.698,531.132 841.034,531.695 841.268,532.371C841.501,533.048 841.618,533.783 841.618,534.576ZM834.016,534.52C834.016,535.304 834.081,535.995 834.212,536.592C834.342,537.19 834.529,537.68 834.772,538.062C835.238,538.753 835.999,539.098 837.054,539.098C838.043,539.098 838.771,538.79 839.238,538.174C839.751,537.474 840.008,536.34 840.008,534.772C840.008,533.998 839.942,533.316 839.812,532.728C839.681,532.14 839.49,531.664 839.238,531.3C838.752,530.61 837.996,530.264 836.97,530.264C835.99,530.264 835.262,530.572 834.786,531.188C834.272,531.87 834.016,532.98 834.016,534.52Z" style="fill:rgb(219,168,124);fill-rule:nonzero;"/>
                <path d="M844.768,530.544L843.592,530.25L843.592,529.648L846.266,529.648L851.502,537.39L851.502,530.544L850.326,530.25L850.326,529.648L853.588,529.648L853.588,530.25L852.412,530.544L852.412,539.728L851.418,539.728L845.678,531.342L845.678,538.832L846.854,539.126L846.854,539.728L843.592,539.728L843.592,539.126L844.768,538.832L844.768,530.544Z" style="fill:rgb(219,168,124);fill-rule:nonzero;"/>
                <path d="M864.662,534.576C864.662,535.398 864.54,536.163 864.298,536.872C864.055,537.582 863.71,538.174 863.262,538.65C862.916,539.024 862.515,539.306 862.058,539.497C861.6,539.689 861.078,539.808 860.49,539.854L860.49,539.91L862.268,541.044C862.622,541.268 863,541.38 863.402,541.38C863.551,541.38 863.679,541.362 863.787,541.324C863.894,541.287 864.018,541.217 864.158,541.114L864.382,541.492C864.195,541.791 863.957,542.003 863.668,542.129C863.378,542.255 863.024,542.318 862.604,542.318C862.081,542.318 861.624,542.23 861.232,542.052C860.84,541.875 860.536,541.609 860.322,541.254L859.482,539.84C858.343,539.756 857.447,539.374 856.794,538.692C856.364,538.244 856.033,537.682 855.8,537.005C855.566,536.329 855.45,535.594 855.45,534.8C855.45,533.979 855.571,533.214 855.814,532.504C856.056,531.795 856.402,531.202 856.85,530.726C857.242,530.306 857.694,529.998 858.208,529.802C858.721,529.606 859.337,529.508 860.056,529.508C861.465,529.508 862.548,529.9 863.304,530.684C863.742,531.132 864.078,531.695 864.312,532.371C864.545,533.048 864.662,533.783 864.662,534.576ZM857.06,534.492C857.06,535.286 857.125,535.988 857.256,536.599C857.386,537.211 857.573,537.698 857.816,538.062C858.273,538.753 859.029,539.098 860.084,539.098C861.082,539.098 861.815,538.79 862.282,538.174C862.795,537.474 863.052,536.34 863.052,534.772C863.052,533.998 862.986,533.316 862.856,532.728C862.725,532.14 862.534,531.664 862.282,531.3C861.796,530.61 861.04,530.264 860.014,530.264C859.034,530.264 858.306,530.572 857.83,531.188C857.316,531.851 857.06,532.952 857.06,534.492Z" style="fill:rgb(219,168,124);fill-rule:nonzero;"/>
                <path d="M874.294,530.544L873.118,530.25L873.118,529.648L876.352,529.648L876.352,530.25L875.176,530.544L875.176,536.326C875.176,537.493 874.865,538.377 874.245,538.979C873.624,539.581 872.707,539.882 871.494,539.882C870.243,539.882 869.286,539.574 868.624,538.958C867.961,538.342 867.63,537.46 867.63,536.312L867.63,530.544L866.454,530.25L866.454,529.648L870.206,529.648L870.206,530.25L869.03,530.544L869.03,536.074C869.03,538.1 869.954,539.112 871.802,539.112C872.679,539.112 873.314,538.877 873.706,538.405C874.098,537.934 874.294,537.166 874.294,536.102L874.294,530.544Z" style="fill:rgb(219,168,124);fill-rule:nonzero;"/>
                <path d="M883.408,536.396L883.156,534.968L880.832,534.968L880.832,538.888L885.06,538.888L885.494,536.606L886.306,536.606L886.306,539.728L878.116,539.728L878.116,539.126L879.432,538.832L879.432,530.544L878.116,530.25L878.116,529.648L885.998,529.648L885.998,532.616L885.27,532.616L884.822,530.46L880.832,530.46L880.832,534.128L883.156,534.128L883.408,532.7L884.122,532.7L884.122,536.396L883.408,536.396Z" style="fill:rgb(219,168,124);fill-rule:nonzero;"/>
                <path d="M895.406,534.38C895.238,534.511 895.042,534.623 894.818,534.716C894.594,534.81 894.318,534.889 893.992,534.954C894.16,535.122 894.346,535.374 894.552,535.71L896.414,538.86L897.66,539.126L897.66,539.728L894.776,539.728L894.776,539.126L892.76,535.206L891.052,535.206L891.052,538.832L892.382,539.126L892.382,539.728L888.476,539.728L888.476,539.126L889.652,538.832L889.652,530.544L888.476,530.25L888.476,529.648L893.292,529.648C893.74,529.648 894.132,529.69 894.468,529.774C894.804,529.858 895.107,529.994 895.378,530.18C895.723,530.404 895.991,530.712 896.183,531.104C896.374,531.496 896.47,531.888 896.47,532.28C896.47,532.672 896.374,533.057 896.183,533.435C895.991,533.813 895.732,534.128 895.406,534.38ZM893.054,534.394C893.567,534.394 893.992,534.25 894.328,533.96C894.514,533.792 894.661,533.566 894.769,533.281C894.876,532.997 894.93,532.691 894.93,532.364C894.93,532.038 894.876,531.741 894.769,531.475C894.661,531.209 894.51,530.992 894.314,530.824C894.155,530.694 893.971,530.6 893.761,530.544C893.551,530.488 893.296,530.46 892.998,530.46L891.052,530.46L891.052,534.394L893.054,534.394Z" style="fill:rgb(219,168,124);fill-rule:nonzero;"/>
                <path d="M823.726,547.648L823.726,550.588L822.998,550.588L822.55,548.488L820.254,548.488L820.254,556.79L821.738,557.126L821.738,557.728L817.37,557.728L817.37,557.126L818.854,556.79L818.854,548.488L816.544,548.488L816.11,550.588L815.382,550.588L815.382,547.648L823.726,547.648Z" style="fill:rgb(219,168,124);fill-rule:nonzero;"/>
                <path d="M834.254,556.832L835.43,557.126L835.43,557.728L831.678,557.728L831.678,557.126L832.854,556.832L832.854,552.954L828.108,552.954L828.108,556.832L829.284,557.126L829.284,557.728L825.532,557.728L825.532,557.126L826.708,556.832L826.708,548.544L825.532,548.25L825.532,547.648L829.284,547.648L829.284,548.25L828.108,548.544L828.108,552.142L832.854,552.142L832.854,548.544L831.678,548.25L831.678,547.648L835.43,547.648L835.43,548.25L834.254,548.544L834.254,556.832Z" style="fill:rgb(219,168,124);fill-rule:nonzero;"/>
                <path d="M842.696,554.396L842.444,552.968L840.12,552.968L840.12,556.888L844.348,556.888L844.782,554.606L845.594,554.606L845.594,557.728L837.404,557.728L837.404,557.126L838.72,556.832L838.72,548.544L837.404,548.25L837.404,547.648L845.286,547.648L845.286,550.616L844.558,550.616L844.11,548.46L840.12,548.46L840.12,552.128L842.444,552.128L842.696,550.7L843.41,550.7L843.41,554.396L842.696,554.396Z" style="fill:rgb(219,168,124);fill-rule:nonzero;"/>
                <path d="M859.762,550.07C859.762,550.341 859.715,550.598 859.622,550.84C859.528,551.083 859.398,551.3 859.23,551.491C859.062,551.683 858.863,551.841 858.635,551.967C858.406,552.093 858.156,552.175 857.886,552.212L857.886,552.268C858.614,552.427 859.188,552.737 859.608,553.199C860.028,553.661 860.238,554.233 860.238,554.914C860.238,555.446 860.1,555.932 859.825,556.37C859.549,556.809 859.202,557.136 858.782,557.35C858.651,557.416 858.509,557.472 858.355,557.518C858.201,557.565 858.021,557.605 857.816,557.637C857.61,557.67 857.377,557.693 857.116,557.707C856.854,557.721 856.551,557.728 856.206,557.728L852.02,557.728L852.02,557.126L853.196,556.832L853.196,548.544L852.02,548.25L852.02,547.648L856.724,547.648C857.704,547.648 858.46,547.886 858.992,548.362C859.234,548.586 859.423,548.848 859.559,549.146C859.694,549.445 859.762,549.753 859.762,550.07ZM854.596,552.87L854.596,556.888L856.136,556.888C856.565,556.888 856.91,556.865 857.172,556.818C857.433,556.772 857.652,556.697 857.83,556.594C858.082,556.445 858.287,556.221 858.446,555.922C858.604,555.624 858.684,555.264 858.684,554.844C858.684,554.49 858.623,554.179 858.502,553.913C858.38,553.647 858.226,553.435 858.04,553.276C857.872,553.136 857.657,553.034 857.396,552.968C857.134,552.903 856.798,552.87 856.388,552.87L854.596,552.87ZM854.596,552.058L856.346,552.058C856.999,552.058 857.48,551.895 857.788,551.568C857.928,551.419 858.049,551.23 858.152,551.001C858.254,550.773 858.306,550.509 858.306,550.21C858.306,549.921 858.254,549.662 858.152,549.433C858.049,549.205 857.928,549.02 857.788,548.88C857.508,548.6 857.046,548.46 856.402,548.46L854.596,548.46L854.596,552.058Z" style="fill:rgb(219,168,124);fill-rule:nonzero;"/>
                <path d="M864.858,556.888L868.666,556.888L869.142,554.466L869.912,554.466L869.912,557.728L862.142,557.728L862.142,557.126L863.458,556.832L863.458,548.544L862.142,548.25L862.142,547.648L866.314,547.648L866.314,548.25L864.858,548.544L864.858,556.888Z" style="fill:rgb(219,168,124);fill-rule:nonzero;"/>
                <path d="M877.668,554.34L873.916,554.34L873.062,556.832L874.224,557.126L874.224,557.728L870.948,557.728L870.948,557.126L872.096,556.832L875.456,547.508L876.758,547.508L880.076,556.832L881.196,557.126L881.196,557.728L877.346,557.728L877.346,557.126L878.494,556.832L877.668,554.34ZM874.196,553.528L877.402,553.528L875.89,548.754L875.834,548.754L874.196,553.528Z" style="fill:rgb(219,168,124);fill-rule:nonzero;"/>
                <path d="M883.688,548.544L882.512,548.25L882.512,547.648L885.186,547.648L890.422,555.39L890.422,548.544L889.246,548.25L889.246,547.648L892.508,547.648L892.508,548.25L891.332,548.544L891.332,557.728L890.338,557.728L884.598,549.342L884.598,556.832L885.774,557.126L885.774,557.728L882.512,557.728L882.512,557.126L883.688,556.832L883.688,548.544Z" style="fill:rgb(219,168,124);fill-rule:nonzero;"/>
                <path d="M897.072,552.604L900.992,548.544L899.718,548.25L899.718,547.648L903.4,547.648L903.4,548.25L902.168,548.544L898.892,551.792L903.078,556.86L904.254,557.126L904.254,557.728L900.348,557.728L900.348,557.126L901.272,556.846L897.954,552.744L897.072,553.584L897.072,556.832L898.248,557.126L898.248,557.728L894.356,557.728L894.356,557.126L895.672,556.832L895.672,548.544L894.356,548.25L894.356,547.648L898.248,547.648L898.248,548.25L897.072,548.544L897.072,552.604Z" style="fill:rgb(219,168,124);fill-rule:nonzero;"/>
                <path d="M844.467,570.954C844.728,570.954 844.973,570.915 845.202,570.835C845.43,570.756 845.61,570.651 845.741,570.52C845.927,570.324 846.086,570.068 846.217,569.75C846.347,569.433 846.413,569.092 846.413,568.728C846.413,568.374 846.35,568.049 846.224,567.755C846.098,567.461 845.937,567.198 845.741,566.964C845.582,566.806 845.388,566.682 845.16,566.593C844.931,566.505 844.681,566.46 844.411,566.46L842.731,566.46L842.731,570.954L844.467,570.954ZM842.731,571.766L842.731,574.832L844.061,575.126L844.061,575.728L840.155,575.728L840.155,575.126L841.331,574.832L841.331,566.544L840.155,566.25L840.155,565.648L844.789,565.648C845.227,565.648 845.626,565.707 845.986,565.823C846.345,565.94 846.646,566.106 846.889,566.32C847.215,566.619 847.474,566.969 847.666,567.37C847.857,567.772 847.953,568.196 847.953,568.644C847.953,569.111 847.852,569.561 847.652,569.995C847.451,570.429 847.187,570.791 846.861,571.08C846.618,571.295 846.315,571.463 845.951,571.584C845.587,571.706 845.195,571.766 844.775,571.766L842.731,571.766Z" style="fill:rgb(219,168,124);fill-rule:nonzero;"/>
                <path d="M854.869,572.34L851.117,572.34L850.263,574.832L851.425,575.126L851.425,575.728L848.149,575.728L848.149,575.126L849.297,574.832L852.657,565.508L853.959,565.508L857.277,574.832L858.397,575.126L858.397,575.728L854.547,575.728L854.547,575.126L855.695,574.832L854.869,572.34ZM851.397,571.528L854.603,571.528L853.091,566.754L853.035,566.754L851.397,571.528Z" style="fill:rgb(219,168,124);fill-rule:nonzero;"/>
                <path d="M864.011,574.958C865.597,574.958 866.391,574.174 866.391,572.606L866.391,571.626L865.215,571.332L865.215,570.702L868.967,570.702L868.967,571.332L867.791,571.626L867.791,575.728L867.063,575.728L866.713,574.622C866.302,575.07 865.882,575.39 865.453,575.581C865.023,575.773 864.515,575.868 863.927,575.868C862.648,575.868 861.626,575.476 860.861,574.692C860.422,574.244 860.086,573.689 859.853,573.026C859.619,572.364 859.503,571.622 859.503,570.8C859.503,569.97 859.626,569.2 859.874,568.49C860.121,567.781 860.469,567.188 860.917,566.712C861.673,565.91 862.695,565.508 863.983,565.508C864.543,565.508 865.021,565.595 865.418,565.767C865.814,565.94 866.19,566.222 866.545,566.614L866.853,565.648L867.623,565.648L867.623,568.742L866.769,568.742C866.498,567.09 865.551,566.264 863.927,566.264C863.451,566.264 863.054,566.341 862.737,566.495C862.419,566.649 862.144,566.89 861.911,567.216C861.64,567.608 861.43,568.103 861.281,568.7C861.131,569.298 861.057,569.932 861.057,570.604C861.057,571.304 861.138,571.946 861.302,572.529C861.465,573.113 861.696,573.61 861.995,574.02C862.237,574.347 862.515,574.585 862.828,574.734C863.14,574.884 863.535,574.958 864.011,574.958Z" style="fill:rgb(219,168,124);fill-rule:nonzero;"/>
                <path d="M875.897,572.396L875.645,570.968L873.321,570.968L873.321,574.888L877.549,574.888L877.983,572.606L878.795,572.606L878.795,575.728L870.605,575.728L870.605,575.126L871.921,574.832L871.921,566.544L870.605,566.25L870.605,565.648L878.487,565.648L878.487,568.616L877.759,568.616L877.311,566.46L873.321,566.46L873.321,570.128L875.645,570.128L875.897,568.7L876.611,568.7L876.611,572.396L875.897,572.396Z" style="fill:rgb(219,168,124);fill-rule:nonzero;"/>
            </g>
            <g transform="matrix(0.366634,0,0,0.366634,1046.62,303.069)">
                <path d="M846.966,538.398L847.302,536.606L848.072,536.606L848.072,539.728L841.422,539.728L841.422,538.804C841.422,538.319 841.548,537.873 841.8,537.467C842.052,537.061 842.367,536.679 842.745,536.319C843.123,535.96 843.533,535.612 843.977,535.276C844.42,534.94 844.831,534.597 845.209,534.247C845.587,533.897 845.902,533.529 846.154,533.141C846.406,532.754 846.532,532.327 846.532,531.86C846.532,531.338 846.359,530.939 846.014,530.663C845.668,530.388 845.169,530.25 844.516,530.25C843.386,530.25 842.724,530.703 842.528,531.608C842.826,531.608 843.055,531.683 843.214,531.832C843.372,531.982 843.452,532.192 843.452,532.462C843.452,532.733 843.372,532.943 843.214,533.092C843.055,533.242 842.831,533.316 842.542,533.316C841.916,533.316 841.604,532.929 841.604,532.154C841.604,531.753 841.681,531.389 841.835,531.062C841.989,530.736 842.206,530.456 842.486,530.222C842.766,529.989 843.102,529.809 843.494,529.683C843.886,529.557 844.32,529.494 844.796,529.494C845.272,529.494 845.703,529.557 846.091,529.683C846.478,529.809 846.809,529.991 847.085,530.229C847.36,530.467 847.572,530.754 847.722,531.09C847.871,531.426 847.946,531.8 847.946,532.21C847.946,532.78 847.813,533.284 847.547,533.722C847.281,534.161 846.947,534.553 846.546,534.898C846.144,535.244 845.713,535.556 845.251,535.836C844.789,536.116 844.357,536.389 843.956,536.655C843.554,536.921 843.221,537.194 842.955,537.474C842.689,537.754 842.556,538.062 842.556,538.398L846.966,538.398Z" style="fill:rgb(219,168,124);fill-rule:nonzero;"/>
                <path d="M850.452,534.688C850.452,533.783 850.55,532.99 850.746,532.308C850.942,531.627 851.231,531.058 851.614,530.6C851.95,530.19 852.335,529.905 852.769,529.746C853.203,529.588 853.737,529.508 854.372,529.508C855.006,529.508 855.541,529.588 855.975,529.746C856.409,529.905 856.794,530.19 857.13,530.6C857.512,531.058 857.802,531.627 857.998,532.308C858.194,532.99 858.292,533.783 858.292,534.688C858.292,535.594 858.194,536.387 857.998,537.068C857.802,537.75 857.512,538.319 857.13,538.776C856.794,539.187 856.409,539.472 855.975,539.63C855.541,539.789 855.006,539.868 854.372,539.868C853.737,539.868 853.203,539.789 852.769,539.63C852.335,539.472 851.95,539.187 851.614,538.776C851.231,538.319 850.942,537.75 850.746,537.068C850.55,536.387 850.452,535.594 850.452,534.688ZM856.724,534.688C856.724,533.867 856.672,533.162 856.57,532.574C856.467,531.986 856.308,531.51 856.094,531.146C855.916,530.848 855.697,530.626 855.436,530.481C855.174,530.337 854.82,530.264 854.372,530.264C853.924,530.264 853.569,530.337 853.308,530.481C853.046,530.626 852.827,530.848 852.65,531.146C852.435,531.51 852.276,531.986 852.174,532.574C852.071,533.162 852.02,533.867 852.02,534.688C852.02,535.51 852.071,536.214 852.174,536.802C852.276,537.39 852.435,537.866 852.65,538.23C852.827,538.529 853.046,538.751 853.308,538.895C853.569,539.04 853.924,539.112 854.372,539.112C854.82,539.112 855.174,539.04 855.436,538.895C855.697,538.751 855.916,538.529 856.094,538.23C856.308,537.866 856.467,537.39 856.57,536.802C856.672,536.214 856.724,535.51 856.724,534.688Z" style="fill:rgb(219,168,124);fill-rule:nonzero;"/>
                <path d="M860.588,534.688C860.588,533.783 860.686,532.99 860.882,532.308C861.078,531.627 861.367,531.058 861.75,530.6C862.086,530.19 862.471,529.905 862.905,529.746C863.339,529.588 863.873,529.508 864.508,529.508C865.142,529.508 865.677,529.588 866.111,529.746C866.545,529.905 866.93,530.19 867.266,530.6C867.648,531.058 867.938,531.627 868.134,532.308C868.33,532.99 868.428,533.783 868.428,534.688C868.428,535.594 868.33,536.387 868.134,537.068C867.938,537.75 867.648,538.319 867.266,538.776C866.93,539.187 866.545,539.472 866.111,539.63C865.677,539.789 865.142,539.868 864.508,539.868C863.873,539.868 863.339,539.789 862.905,539.63C862.471,539.472 862.086,539.187 861.75,538.776C861.367,538.319 861.078,537.75 860.882,537.068C860.686,536.387 860.588,535.594 860.588,534.688ZM866.86,534.688C866.86,533.867 866.808,533.162 866.706,532.574C866.603,531.986 866.444,531.51 866.23,531.146C866.052,530.848 865.833,530.626 865.572,530.481C865.31,530.337 864.956,530.264 864.508,530.264C864.06,530.264 863.705,530.337 863.444,530.481C863.182,530.626 862.963,530.848 862.786,531.146C862.571,531.51 862.412,531.986 862.31,532.574C862.207,533.162 862.156,533.867 862.156,534.688C862.156,535.51 862.207,536.214 862.31,536.802C862.412,537.39 862.571,537.866 862.786,538.23C862.963,538.529 863.182,538.751 863.444,538.895C863.705,539.04 864.06,539.112 864.508,539.112C864.956,539.112 865.31,539.04 865.572,538.895C865.833,538.751 866.052,538.529 866.23,538.23C866.444,537.866 866.603,537.39 866.706,536.802C866.808,536.214 866.86,535.51 866.86,534.688Z" style="fill:rgb(219,168,124);fill-rule:nonzero;"/>
                <path d="M876.156,534.548C875.894,534.894 875.544,535.164 875.106,535.36C874.667,535.556 874.191,535.654 873.678,535.654C873.23,535.654 872.824,535.58 872.46,535.43C872.096,535.281 871.783,535.073 871.522,534.807C871.26,534.541 871.057,534.219 870.913,533.841C870.768,533.463 870.696,533.041 870.696,532.574C870.696,531.613 870.994,530.859 871.592,530.313C872.189,529.767 873.006,529.494 874.042,529.494C875.236,529.494 876.118,529.893 876.688,530.691C877.257,531.489 877.542,532.728 877.542,534.408C877.542,536.21 877.227,537.57 876.597,538.489C875.967,539.409 875.031,539.868 873.79,539.868C872.95,539.868 872.28,539.661 871.781,539.245C871.281,538.83 871.032,538.272 871.032,537.572C871.032,536.779 871.349,536.382 871.984,536.382C872.254,536.382 872.471,536.457 872.635,536.606C872.798,536.756 872.88,536.966 872.88,537.236C872.88,537.498 872.798,537.705 872.635,537.859C872.471,538.013 872.245,538.09 871.956,538.09C872.058,538.762 872.614,539.098 873.622,539.098C874.088,539.098 874.487,539.026 874.819,538.881C875.15,538.737 875.421,538.508 875.631,538.195C875.841,537.883 875.995,537.481 876.093,536.991C876.191,536.501 876.24,535.906 876.24,535.206C876.24,535.038 876.24,534.912 876.24,534.828C876.24,534.744 876.23,534.651 876.212,534.548L876.156,534.548ZM872.194,532.574C872.194,534.096 872.814,534.856 874.056,534.856C875.297,534.856 875.918,534.096 875.918,532.574C875.918,531.034 875.297,530.264 874.056,530.264C872.814,530.264 872.194,531.034 872.194,532.574Z" style="fill:rgb(219,168,124);fill-rule:nonzero;"/>
            </g>
            <g transform="matrix(0.366634,0,0,0.366634,1046.62,354.757)">
                <path d="M849.101,538.398L849.437,536.606L850.207,536.606L850.207,539.728L843.557,539.728L843.557,538.804C843.557,538.319 843.683,537.873 843.935,537.467C844.187,537.061 844.502,536.679 844.88,536.319C845.258,535.96 845.668,535.612 846.112,535.276C846.555,534.94 846.966,534.597 847.344,534.247C847.722,533.897 848.037,533.529 848.289,533.141C848.541,532.754 848.667,532.327 848.667,531.86C848.667,531.338 848.494,530.939 848.149,530.663C847.803,530.388 847.304,530.25 846.651,530.25C845.521,530.25 844.859,530.703 844.663,531.608C844.961,531.608 845.19,531.683 845.349,531.832C845.507,531.982 845.587,532.192 845.587,532.462C845.587,532.733 845.507,532.943 845.349,533.092C845.19,533.242 844.966,533.316 844.677,533.316C844.051,533.316 843.739,532.929 843.739,532.154C843.739,531.753 843.816,531.389 843.97,531.062C844.124,530.736 844.341,530.456 844.621,530.222C844.901,529.989 845.237,529.809 845.629,529.683C846.021,529.557 846.455,529.494 846.931,529.494C847.407,529.494 847.838,529.557 848.226,529.683C848.613,529.809 848.944,529.991 849.22,530.229C849.495,530.467 849.707,530.754 849.857,531.09C850.006,531.426 850.081,531.8 850.081,532.21C850.081,532.78 849.948,533.284 849.682,533.722C849.416,534.161 849.082,534.553 848.681,534.898C848.279,535.244 847.848,535.556 847.386,535.836C846.924,536.116 846.492,536.389 846.091,536.655C845.689,536.921 845.356,537.194 845.09,537.474C844.824,537.754 844.691,538.062 844.691,538.398L849.101,538.398Z" style="fill:rgb(219,168,124);fill-rule:nonzero;"/>
                <path d="M852.587,534.688C852.587,533.783 852.685,532.99 852.881,532.308C853.077,531.627 853.366,531.058 853.749,530.6C854.085,530.19 854.47,529.905 854.904,529.746C855.338,529.588 855.872,529.508 856.507,529.508C857.141,529.508 857.676,529.588 858.11,529.746C858.544,529.905 858.929,530.19 859.265,530.6C859.647,531.058 859.937,531.627 860.133,532.308C860.329,532.99 860.427,533.783 860.427,534.688C860.427,535.594 860.329,536.387 860.133,537.068C859.937,537.75 859.647,538.319 859.265,538.776C858.929,539.187 858.544,539.472 858.11,539.63C857.676,539.789 857.141,539.868 856.507,539.868C855.872,539.868 855.338,539.789 854.904,539.63C854.47,539.472 854.085,539.187 853.749,538.776C853.366,538.319 853.077,537.75 852.881,537.068C852.685,536.387 852.587,535.594 852.587,534.688ZM858.859,534.688C858.859,533.867 858.807,533.162 858.705,532.574C858.602,531.986 858.443,531.51 858.229,531.146C858.051,530.848 857.832,530.626 857.571,530.481C857.309,530.337 856.955,530.264 856.507,530.264C856.059,530.264 855.704,530.337 855.443,530.481C855.181,530.626 854.962,530.848 854.785,531.146C854.57,531.51 854.411,531.986 854.309,532.574C854.206,533.162 854.155,533.867 854.155,534.688C854.155,535.51 854.206,536.214 854.309,536.802C854.411,537.39 854.57,537.866 854.785,538.23C854.962,538.529 855.181,538.751 855.443,538.895C855.704,539.04 856.059,539.112 856.507,539.112C856.955,539.112 857.309,539.04 857.571,538.895C857.832,538.751 858.051,538.529 858.229,538.23C858.443,537.866 858.602,537.39 858.705,536.802C858.807,536.214 858.859,535.51 858.859,534.688Z" style="fill:rgb(219,168,124);fill-rule:nonzero;"/>
                <path d="M864.333,530.866L862.555,530.866L862.555,530.152C862.723,530.152 862.916,530.138 863.136,530.11C863.355,530.082 863.57,530.04 863.78,529.984C863.99,529.928 864.181,529.861 864.354,529.781C864.526,529.702 864.655,529.611 864.739,529.508L865.691,529.508L865.691,538.888L867.189,539.154L867.189,539.728L862.555,539.728L862.555,539.154L864.333,538.888L864.333,530.866Z" style="fill:rgb(219,168,124);fill-rule:nonzero;"/>
                <path d="M875.029,531.734C875.029,532.266 874.896,532.752 874.63,533.19C874.364,533.629 873.988,533.993 873.503,534.282C874.203,534.665 874.709,535.066 875.022,535.486C875.334,535.906 875.491,536.396 875.491,536.956C875.491,537.395 875.407,537.794 875.239,538.153C875.071,538.513 874.833,538.818 874.525,539.07C874.217,539.322 873.848,539.518 873.419,539.658C872.989,539.798 872.513,539.868 871.991,539.868C871.029,539.868 870.285,539.637 869.758,539.175C869.23,538.713 868.967,538.067 868.967,537.236C868.967,536.639 869.118,536.116 869.422,535.668C869.725,535.22 870.203,534.81 870.857,534.436C870.595,534.25 870.374,534.068 870.192,533.89C870.01,533.713 869.863,533.531 869.751,533.344C869.639,533.158 869.557,532.962 869.506,532.756C869.454,532.551 869.429,532.327 869.429,532.084C869.429,531.272 869.685,530.638 870.199,530.18C870.712,529.723 871.426,529.494 872.341,529.494C873.19,529.494 873.85,529.693 874.322,530.089C874.793,530.486 875.029,531.034 875.029,531.734ZM871.431,534.8C870.917,535.099 870.542,535.444 870.304,535.836C870.066,536.228 869.947,536.69 869.947,537.222C869.947,538.482 870.633,539.112 872.005,539.112C873.414,539.112 874.119,538.538 874.119,537.39C874.119,537.166 874.077,536.959 873.993,536.767C873.909,536.576 873.762,536.38 873.552,536.179C873.342,535.979 873.064,535.769 872.719,535.549C872.373,535.33 871.944,535.08 871.431,534.8ZM872.901,533.918C873.302,533.722 873.617,533.433 873.846,533.05C874.074,532.668 874.189,532.248 874.189,531.79C874.189,530.764 873.582,530.25 872.369,530.25C871.202,530.25 870.619,530.731 870.619,531.692C870.619,531.916 870.658,532.122 870.738,532.308C870.817,532.495 870.948,532.677 871.13,532.854C871.312,533.032 871.547,533.207 871.837,533.379C872.126,533.552 872.481,533.732 872.901,533.918Z" style="fill:rgb(219,168,124);fill-rule:nonzero;"/>
            </g>
            <g transform="matrix(0.531427,0,0,0.531427,915.496,227.938)">
                <path d="M781.569,613.734C784.935,613.862 787.54,617.746 786.095,620.943C784.387,624.72 777.302,624.739 776.409,619.744C775.883,616.801 778.361,613.694 781.569,613.734ZM781.345,615.276C778.614,615.379 776.69,619.241 778.978,621.423C781.211,623.552 786.537,621.204 784.653,617.296C784.051,616.048 782.911,615.256 781.345,615.276Z" style="fill:rgb(219,168,124);fill-rule:nonzero;"/>
            </g>
            <g transform="matrix(0.531427,0,0,0.531427,977.571,227.938)">
                <path d="M781.569,613.734C784.894,613.861 787.57,617.678 786.095,620.943C784.387,624.72 777.302,624.739 776.409,619.744C775.883,616.802 778.361,613.694 781.569,613.734ZM781.345,615.276C778.614,615.379 776.691,619.244 778.978,621.422C781.208,623.547 786.537,621.204 784.653,617.296C784.051,616.048 782.911,615.256 781.345,615.276Z" style="fill:rgb(219,168,124);fill-rule:nonzero;"/>
            </g>
            <g transform="matrix(0.531427,0,0,0.531427,915.496,228.68)">
                <path d="M845.35,631.708C845.742,631.763 846.03,632.068 846.049,632.476L846.049,649.826C846.03,650.25 845.717,650.577 845.279,650.597L834.366,650.597C833.934,650.577 833.615,650.248 833.595,649.826L833.595,632.476C833.615,632.044 833.945,631.725 834.366,631.705C838.027,631.705 841.692,631.539 845.35,631.708ZM835.137,633.247L835.137,649.056L844.508,649.056L844.508,633.247C841.384,633.247 838.26,633.247 835.137,633.247Z" style="fill:rgb(219,168,124);fill-rule:nonzero;"/>
            </g>
            <g transform="matrix(-0.460229,0.265714,-0.265714,-0.460229,1902.54,629.736)">
                <path d="M834.859,622.41C834.657,622.27 834.533,622.06 834.507,621.816C834.42,619.38 834.505,616.941 834.505,614.504C834.519,614.105 834.818,613.778 835.221,613.735C837.657,613.648 840.096,613.733 842.533,613.733C843.343,613.762 843.581,615.237 842.533,615.274L836.046,615.274C836.046,615.274 836.044,621.816 836.044,621.816C835.985,622.372 835.462,622.768 834.859,622.41Z" style="fill:rgb(219,168,124);fill-rule:nonzero;"/>
            </g>
            <g transform="matrix(0.265714,-0.460229,0.460229,0.265714,864,790.004)">
                <path d="M843.234,614.183C843.439,614.677 843.077,615.255 842.533,615.274L836.046,615.274C836.046,615.274 836.044,621.816 836.044,621.816C835.961,622.589 834.611,622.786 834.507,621.816C834.42,619.38 834.505,616.941 834.505,614.504C834.519,614.105 834.818,613.778 835.221,613.735C837.657,613.648 840.096,613.733 842.533,613.733C842.837,613.744 843.04,613.796 843.234,614.183Z" style="fill:rgb(219,168,124);fill-rule:nonzero;"/>
            </g>
            <g transform="matrix(0.531427,0,0,0.531427,915.496,227.938)">
                <path d="M872.712,509.915C873.088,509.99 873.047,510.575 872.667,510.6L857.776,510.6C857.388,510.574 857.373,509.939 857.776,509.912C862.754,509.912 867.744,509.59 872.712,509.915Z" style="fill:rgb(219,168,124);fill-rule:nonzero;"/>
            </g>
            <g transform="matrix(0.531427,0,0,0.531427,915.496,279.626)">
                <path d="M872.712,509.915C873.088,509.99 873.047,510.575 872.667,510.6L857.776,510.6C857.402,510.575 857.336,509.941 857.776,509.912C862.754,509.912 867.744,509.59 872.712,509.915Z" style="fill:rgb(219,168,124);fill-rule:nonzero;"/>
            </g>
            <g transform="matrix(0.531427,0,0,0.531427,888.37,227.938)">
                <path d="M872.712,509.915C873.088,509.99 873.047,510.575 872.667,510.6L857.775,510.6C857.387,510.574 857.373,509.939 857.775,509.912C862.754,509.912 867.744,509.59 872.712,509.915Z" style="fill:rgb(219,168,124);fill-rule:nonzero;"/>
            </g>
            <g transform="matrix(0.531427,0,0,0.531427,888.37,279.626)">
                <path d="M872.712,509.915C873.073,509.987 873.081,510.573 872.667,510.6L857.775,510.6C857.387,510.574 857.373,509.939 857.775,509.912C862.754,509.912 867.744,509.59 872.712,509.915Z" style="fill:rgb(219,168,124);fill-rule:nonzero;"/>
            </g>
        </g>
    </g>
</svg>
