<?xml version="1.0" encoding="UTF-8" standalone="no"?>
<!DOCTYPE svg PUBLIC "-//W3C//DTD SVG 1.1//EN" "http://www.w3.org/Graphics/SVG/1.1/DTD/svg11.dtd">
<svg width="100%" height="100%" viewBox="0 0 512 512" version="1.1" xmlns="http://www.w3.org/2000/svg" xmlns:xlink="http://www.w3.org/1999/xlink" xml:space="preserve" xmlns:serif="http://www.serif.com/" style="fill-rule:evenodd;clip-rule:evenodd;stroke-linejoin:round;stroke-miterlimit:2;">
    <path d="M256,0C397.29,0 512,114.71 512,256C512,397.29 397.29,512 256,512C114.71,512 0,397.29 0,256C0,114.71 114.71,0 256,0ZM325.166,367.957C335.698,367.114 355.006,369.646 372.559,362.049C406.785,347.699 416.439,312.245 412.051,284.387C406.785,253.155 378.701,231.207 374.314,227.83C371.681,226.141 367.293,228.674 369.048,232.052C371.681,236.272 379.578,249.778 376.946,271.725C373.436,302.115 348.862,321.531 336.575,330.815C324.288,340.101 314.636,333.348 310.247,326.595C307.615,323.218 304.982,316.465 308.492,310.556C311.125,305.491 317.269,302.959 323.412,296.206C344.474,274.258 351.495,255.688 353.251,237.116C355.006,218.545 353.251,195.753 337.453,172.117C325.166,153.547 303.226,137.508 297.96,133.288C292.695,128.222 290.062,128.223 290.939,119.781C291.817,111.34 293.572,90.236 288.306,72.509C283.041,53.938 272.509,41.277 272.509,41.277C271.633,38.744 268.122,39.588 269,42.965C270.755,47.185 271.633,53.094 270.755,61.535C269,80.106 244.426,101.21 226.873,116.404C209.321,131.599 190.013,146.794 179.482,168.741C171.583,185.623 168.073,206.728 174.216,232.052C181.237,257.375 194.401,266.661 204.933,284.387C215.464,301.27 202.3,314.777 190.013,318.154C178.604,321.53 164.562,300.426 157.541,286.076C148.765,268.35 149.643,238.803 149.643,234.583L149.643,231.207C149.643,229.519 147.01,228.674 146.132,229.519C145.255,230.363 144.377,231.207 143.499,232.894C135.601,243.025 116.293,264.972 109.272,280.167C102.251,295.362 94.353,317.309 102.251,345.166C110.15,372.178 127.702,387.373 133.846,392.437C134.723,393.281 135.601,394.126 136.479,394.97C138.234,396.659 142.622,395.813 143.499,392.437C144.377,389.904 144.377,386.528 144.377,384.841C145.255,374.711 150.52,368.802 167.195,360.361C185.625,351.075 225.996,337.569 243.548,336.724C256.713,336.724 267.244,347.697 250.569,371.334C241.793,383.151 212.831,393.283 205.811,402.567C198.79,412.698 205.811,432.112 230.384,448.151C254.957,465.033 290.062,464.189 300.593,464.189C312.003,463.345 311.125,456.592 311.125,450.683C311.125,444.774 311.125,432.111 344.474,418.605C375.192,405.943 383.089,395.813 386.6,390.749C390.11,384.84 386.6,381.464 383.089,383.995C379.578,386.528 369.926,392.437 351.495,394.97C333.065,397.503 323.412,392.437 319.902,385.684C314.636,381.464 314.636,368.801 325.166,367.957ZM277.775,290.297C278.652,298.739 273.387,303.803 267.244,305.492C257.59,308.023 240.915,308.868 238.282,284.387C234.772,255.686 235.649,222.766 249.692,196.598C260.223,176.339 273.387,161.988 274.264,160.3C276.019,158.611 279.53,156.922 282.163,161.144C286.551,169.584 279.53,192.376 276.897,217.701C273.387,249.778 276.019,280.167 277.775,290.297Z"/>
</svg>
