<?xml version="1.0" encoding="UTF-8" standalone="no"?>
<!DOCTYPE svg PUBLIC "-//W3C//DTD SVG 1.1//EN" "http://www.w3.org/Graphics/SVG/1.1/DTD/svg11.dtd">
<svg width="100%" height="100%" viewBox="0 0 186 186" version="1.1" xmlns="http://www.w3.org/2000/svg" xmlns:xlink="http://www.w3.org/1999/xlink" xml:space="preserve" xmlns:serif="http://www.serif.com/" style="fill-rule:evenodd;clip-rule:evenodd;stroke-linejoin:round;stroke-miterlimit:2;">
    <g id="Artboard1" transform="matrix(0.617542,0,0,0.617542,0,0)">
        <rect x="0" y="0" width="300" height="300" style="fill:none;"/>
        <g transform="matrix(1.61932,0,0,1.61932,-24.8611,-34.0805)">
            <g transform="matrix(0.995918,0.0902655,-0.0902655,0.995918,109.014,72.25)">
                <text x="0px" y="0px" style="font-family:'CenturyGothic-Bold', 'Century Gothic', sans-serif;font-weight:700;font-size:12px;fill:rgb(177,204,255);">D</text>
            </g>
            <g transform="matrix(0.950336,0.311226,-0.311226,0.950336,117.446,72.9011)">
                <text x="0px" y="0px" style="font-family:'CenturyGothic-Bold', 'Century Gothic', sans-serif;font-weight:700;font-size:12px;fill:rgb(177,204,255);">O</text>
            </g>
            <g transform="matrix(0.839585,0.543228,-0.543228,0.839585,127.106,76.0318)">
                <text x="0px" y="0px" style="font-family:'CenturyGothic-Bold', 'Century Gothic', sans-serif;font-weight:700;font-size:12px;fill:rgb(177,204,255);">W</text>
            </g>
            <g transform="matrix(0.690925,0.722926,-0.722926,0.690925,136.123,82.0068)">
                <text x="0px" y="0px" style="font-family:'CenturyGothic-Bold', 'Century Gothic', sans-serif;font-weight:700;font-size:12px;fill:rgb(177,204,255);">N</text>
            </g>
            <g transform="matrix(0.556199,0.831049,-0.831049,0.556199,142.17,88.517)">
                <text x="0px" y="0px" style="font-family:'CenturyGothic-Bold', 'Century Gothic', sans-serif;font-weight:700;font-size:12px;fill:rgb(177,204,255);">L</text>
            </g>
            <g transform="matrix(0.409161,0.912462,-0.912462,0.409161,145.313,92.8006)">
                <text x="0px" y="0px" style="font-family:'CenturyGothic-Bold', 'Century Gothic', sans-serif;font-weight:700;font-size:12px;fill:rgb(177,204,255);">O</text>
            </g>
            <g transform="matrix(0.203671,0.979039,-0.979039,0.203671,149.387,102.062)">
                <text x="0px" y="0px" style="font-family:'CenturyGothic-Bold', 'Century Gothic', sans-serif;font-weight:700;font-size:12px;fill:rgb(177,204,255);">A</text>
            </g>
            <g transform="matrix(0.00687549,0.999976,-0.999976,0.00687549,151.192,110.796)">
                <text x="0px" y="0px" style="font-family:'CenturyGothic-Bold', 'Century Gothic', sans-serif;font-weight:700;font-size:12px;fill:rgb(177,204,255);">D</text>
            </g>
            <g transform="matrix(-0.241594,0.970377,-0.970377,-0.241594,150.842,122.555)">
                <text x="0px" y="0px" style="font-family:'CenturyGothic-Bold', 'Century Gothic', sans-serif;font-weight:700;font-size:12px;fill:rgb(177,204,255);">R</text>
            </g>
            <g transform="matrix(-0.381104,0.924532,-0.924532,-0.381104,149.175,129.322)">
                <text x="0px" y="0px" style="font-family:'CenturyGothic-Bold', 'Century Gothic', sans-serif;font-weight:700;font-size:12px;fill:rgb(177,204,255);">E</text>
            </g>
            <g transform="matrix(-0.501589,0.865106,-0.865106,-0.501589,146.793,135.109)">
                <text x="0px" y="0px" style="font-family:'CenturyGothic-Bold', 'Century Gothic', sans-serif;font-weight:700;font-size:12px;fill:rgb(177,204,255);">S</text>
            </g>
            <g transform="matrix(-0.636861,0.770978,-0.770978,-0.636861,143.698,140.538)">
                <text x="0px" y="0px" style="font-family:'CenturyGothic-Bold', 'Century Gothic', sans-serif;font-weight:700;font-size:12px;fill:rgb(177,204,255);">U</text>
            </g>
            <g transform="matrix(-0.78852,0.615009,-0.615009,-0.78852,138.893,146.617)">
                <text x="0px" y="0px" style="font-family:'CenturyGothic-Bold', 'Century Gothic', sans-serif;font-weight:700;font-size:12px;fill:rgb(177,204,255);">M</text>
            </g>
            <g transform="matrix(-0.900148,0.435584,-0.435584,-0.900148,130.254,153.087)">
                <text x="0px" y="0px" style="font-family:'CenturyGothic-Bold', 'Century Gothic', sans-serif;font-weight:700;font-size:12px;fill:rgb(177,204,255);">E</text>
            </g>
            <g transform="matrix(-0.980915,0.194438,-0.194438,-0.980915,121.471,157.014)">
                <text x="0px" y="0px" style="font-family:'AppleSymbols', 'Apple Symbols';font-size:12px;fill:rgb(177,204,255);">★</text>
            </g>
            <g transform="matrix(-0.995265,-0.0972025,0.0972025,-0.995265,110.219,158.789)">
                <text x="0px" y="0px" style="font-family:'CenturyGothic-Bold', 'Century Gothic', sans-serif;font-weight:700;font-size:12px;fill:rgb(177,204,255);">D</text>
            </g>
            <g transform="matrix(-0.948204,-0.317663,0.317663,-0.948204,101.8,158.081)">
                <text x="0px" y="0px" style="font-family:'CenturyGothic-Bold', 'Century Gothic', sans-serif;font-weight:700;font-size:12px;fill:rgb(177,204,255);">O</text>
            </g>
            <g transform="matrix(-0.836248,-0.548352,0.548352,-0.836248,92.1787,154.894)">
                <text x="0px" y="0px" style="font-family:'CenturyGothic-Bold', 'Century Gothic', sans-serif;font-weight:700;font-size:12px;fill:rgb(177,204,255);">W</text>
            </g>
            <g transform="matrix(-0.686343,-0.727278,0.727278,-0.686343,83.185,148.852)">
                <text x="0px" y="0px" style="font-family:'CenturyGothic-Bold', 'Century Gothic', sans-serif;font-weight:700;font-size:12px;fill:rgb(177,204,255);">N</text>
            </g>
            <g transform="matrix(-0.550964,-0.834529,0.834529,-0.550964,77.1783,142.302)">
                <text x="0px" y="0px" style="font-family:'CenturyGothic-Bold', 'Century Gothic', sans-serif;font-weight:700;font-size:12px;fill:rgb(177,204,255);">L</text>
            </g>
            <g transform="matrix(-0.403039,-0.915183,0.915183,-0.403039,74.0517,137.981)">
                <text x="0px" y="0px" style="font-family:'CenturyGothic-Bold', 'Century Gothic', sans-serif;font-weight:700;font-size:12px;fill:rgb(177,204,255);">O</text>
            </g>
            <g transform="matrix(-0.197741,-0.980254,0.980254,-0.197741,70.047,128.718)">
                <text x="0px" y="0px" style="font-family:'CenturyGothic-Bold', 'Century Gothic', sans-serif;font-weight:700;font-size:12px;fill:rgb(177,204,255);">A</text>
            </g>
            <g transform="matrix(-0.00114596,-0.999999,0.999999,-0.00114596,68.2954,119.98)">
                <text x="0px" y="0px" style="font-family:'CenturyGothic-Bold', 'Century Gothic', sans-serif;font-weight:700;font-size:12px;fill:rgb(177,204,255);">D</text>
            </g>
            <g transform="matrix(0.247444,-0.968902,0.968902,0.247444,68.715,108.217)">
                <text x="0px" y="0px" style="font-family:'CenturyGothic-Bold', 'Century Gothic', sans-serif;font-weight:700;font-size:12px;fill:rgb(177,204,255);">R</text>
            </g>
            <g transform="matrix(0.386612,-0.922242,0.922242,0.386612,70.4203,101.464)">
                <text x="0px" y="0px" style="font-family:'CenturyGothic-Bold', 'Century Gothic', sans-serif;font-weight:700;font-size:12px;fill:rgb(177,204,255);">E</text>
            </g>
            <g transform="matrix(0.506705,-0.86212,0.86212,0.506705,72.8366,95.6963)">
                <text x="0px" y="0px" style="font-family:'CenturyGothic-Bold', 'Century Gothic', sans-serif;font-weight:700;font-size:12px;fill:rgb(177,204,255);">S</text>
            </g>
            <g transform="matrix(0.641703,-0.766953,0.766953,0.641703,75.9711,90.2733)">
                <text x="0px" y="0px" style="font-family:'CenturyGothic-Bold', 'Century Gothic', sans-serif;font-weight:700;font-size:12px;fill:rgb(177,204,255);">U</text>
            </g>
            <g transform="matrix(0.792221,-0.610234,0.610234,0.792221,80.8009,84.2359)">
                <text x="0px" y="0px" style="font-family:'CenturyGothic-Bold', 'Century Gothic', sans-serif;font-weight:700;font-size:12px;fill:rgb(177,204,255);">M</text>
            </g>
            <g transform="matrix(0.903187,-0.429247,0.429247,0.903187,89.508,77.8037)">
                <text x="0px" y="0px" style="font-family:'CenturyGothic-Bold', 'Century Gothic', sans-serif;font-weight:700;font-size:12px;fill:rgb(177,204,255);">E</text>
            </g>
            <g transform="matrix(0.982234,-0.187662,0.187662,0.982234,98.3091,73.942)">
                <text x="0px" y="0px" style="font-family:'AppleSymbols', 'Apple Symbols';font-size:12px;fill:rgb(177,204,255);">★</text>
            </g>
        </g>
    </g>
</svg>
