<?xml version="1.0" encoding="UTF-8" standalone="no"?>
<!DOCTYPE svg PUBLIC "-//W3C//DTD SVG 1.1//EN" "http://www.w3.org/Graphics/SVG/1.1/DTD/svg11.dtd">
<svg width="100%" height="100%" viewBox="0 0 186 186" version="1.1" xmlns="http://www.w3.org/2000/svg" xmlns:xlink="http://www.w3.org/1999/xlink" xml:space="preserve" xmlns:serif="http://www.serif.com/" style="fill-rule:evenodd;clip-rule:evenodd;stroke-linejoin:round;stroke-miterlimit:2;">
    <g id="Artboard1" transform="matrix(0.617542,0,0,0.617542,0,0)">
        <rect x="0" y="0" width="300" height="300" style="fill:none;"/>
        <g transform="matrix(1.61932,0,0,1.61932,-24.8611,-34.0805)">
            <g transform="matrix(0.995918,0.0902655,-0.0902655,0.995918,6.96675,-9.54529)">
                <text x="109.014px" y="72.25px" style="font-family:'CenturyGothic-Bold', 'Century Gothic', sans-serif;font-weight:700;font-size:12px;">D</text>
            </g>
            <g transform="matrix(0.950336,0.311226,-0.311226,0.950336,28.5215,-32.9316)">
                <text x="117.446px" y="72.901px" style="font-family:'CenturyGothic-Bold', 'Century Gothic', sans-serif;font-weight:700;font-size:12px;">O</text>
            </g>
            <g transform="matrix(0.839585,0.543228,-0.543228,0.839585,61.6923,-56.8511)">
                <text x="127.106px" y="76.032px" style="font-family:'CenturyGothic-Bold', 'Century Gothic', sans-serif;font-weight:700;font-size:12px;">W</text>
            </g>
            <g transform="matrix(0.690925,0.722926,-0.722926,0.690925,101.357,-73.0607)">
                <text x="136.123px" y="82.007px" style="font-family:'CenturyGothic-Bold', 'Century Gothic', sans-serif;font-weight:700;font-size:12px;">N</text>
            </g>
            <g transform="matrix(0.556199,0.831049,-0.831049,0.556199,136.657,-78.8663)">
                <text x="142.17px" y="88.517px" style="font-family:'CenturyGothic-Bold', 'Century Gothic', sans-serif;font-weight:700;font-size:12px;">L</text>
            </g>
            <g transform="matrix(0.409161,0.912462,-0.912462,0.409161,170.534,-77.7625)">
                <text x="145.313px" y="92.801px" style="font-family:'CenturyGothic-Bold', 'Century Gothic', sans-serif;font-weight:700;font-size:12px;">O</text>
            </g>
            <g transform="matrix(0.203671,0.979039,-0.979039,0.203671,218.884,-64.9816)">
                <text x="149.388px" y="102.062px" style="font-family:'CenturyGothic-Bold', 'Century Gothic', sans-serif;font-weight:700;font-size:12px;">A</text>
            </g>
            <g transform="matrix(0.00687549,0.999976,-0.999976,0.00687549,260.946,-41.1554)">
                <text x="151.193px" y="110.796px" style="font-family:'CenturyGothic-Bold', 'Century Gothic', sans-serif;font-weight:700;font-size:12px;">D</text>
            </g>
            <g transform="matrix(-0.241594,0.970377,-0.970377,-0.241594,306.209,5.7902)">
                <text x="150.842px" y="122.555px" style="font-family:'CenturyGothic-Bold', 'Century Gothic', sans-serif;font-weight:700;font-size:12px;">R</text>
            </g>
            <g transform="matrix(-0.381104,0.924532,-0.924532,-0.381104,325.589,40.6892)">
                <text x="149.176px" y="129.322px" style="font-family:'CenturyGothic-Bold', 'Century Gothic', sans-serif;font-weight:700;font-size:12px;">E</text>
            </g>
            <g transform="matrix(-0.501589,0.865106,-0.865106,-0.501589,337.306,75.8866)">
                <text x="146.793px" y="135.109px" style="font-family:'CenturyGothic-Bold', 'Century Gothic', sans-serif;font-weight:700;font-size:12px;">S</text>
            </g>
            <g transform="matrix(-0.636861,0.770978,-0.770978,-0.636861,343.565,119.255)">
                <text x="143.697px" y="140.539px" style="font-family:'CenturyGothic-Bold', 'Century Gothic', sans-serif;font-weight:700;font-size:12px;">U</text>
            </g>
            <g transform="matrix(-0.78852,0.615009,-0.615009,-0.78852,338.585,176.809)">
                <text x="138.893px" y="146.619px" style="font-family:'CenturyGothic-Bold', 'Century Gothic', sans-serif;font-weight:700;font-size:12px;">M</text>
            </g>
            <g transform="matrix(-0.900148,0.435584,-0.435584,-0.900148,314.184,234.151)">
                <text x="130.254px" y="153.087px" style="font-family:'CenturyGothic-Bold', 'Century Gothic', sans-serif;font-weight:700;font-size:12px;">E</text>
            </g>
            <g transform="matrix(-0.980915,0.194438,-0.194438,-0.980915,271.153,287.413)">
                <text x="121.471px" y="157.014px" style="font-family:'AppleSymbols', 'Apple Symbols';font-size:12px;">★</text>
            </g>
            <g transform="matrix(-0.995265,-0.0972025,0.0972025,-0.995265,204.481,327.54)">
                <text x="110.219px" y="158.789px" style="font-family:'CenturyGothic-Bold', 'Century Gothic', sans-serif;font-weight:700;font-size:12px;">D</text>
            </g>
            <g transform="matrix(-0.948204,-0.317663,0.317663,-0.948204,148.111,340.312)">
                <text x="101.8px" y="158.081px" style="font-family:'CenturyGothic-Bold', 'Century Gothic', sans-serif;font-weight:700;font-size:12px;">O</text>
            </g>
            <g transform="matrix(-0.836248,-0.548352,0.548352,-0.836248,84.3265,334.969)">
                <text x="92.178px" y="154.893px" style="font-family:'CenturyGothic-Bold', 'Century Gothic', sans-serif;font-weight:700;font-size:12px;">W</text>
            </g>
            <g transform="matrix(-0.686343,-0.727278,0.727278,-0.686343,32.0223,311.515)">
                <text x="83.186px" y="148.852px" style="font-family:'CenturyGothic-Bold', 'Century Gothic', sans-serif;font-weight:700;font-size:12px;">N</text>
            </g>
            <g transform="matrix(-0.550964,-0.834529,0.834529,-0.550964,0.945456,285.113)">
                <text x="77.178px" y="142.302px" style="font-family:'CenturyGothic-Bold', 'Century Gothic', sans-serif;font-weight:700;font-size:12px;">L</text>
            </g>
            <g transform="matrix(-0.403039,-0.915183,0.915183,-0.403039,-22.3803,261.364)">
                <text x="74.052px" y="137.981px" style="font-family:'CenturyGothic-Bold', 'Century Gothic', sans-serif;font-weight:700;font-size:12px;">O</text>
            </g>
            <g transform="matrix(-0.197741,-0.980254,0.980254,-0.197741,-42.2772,222.834)">
                <text x="70.047px" y="128.717px" style="font-family:'CenturyGothic-Bold', 'Century Gothic', sans-serif;font-weight:700;font-size:12px;">A</text>
            </g>
            <g transform="matrix(-0.00114596,-0.999999,0.999999,-0.00114596,-51.6052,188.412)">
                <text x="68.295px" y="119.979px" style="font-family:'CenturyGothic-Bold', 'Century Gothic', sans-serif;font-weight:700;font-size:12px;">D</text>
            </g>
            <g transform="matrix(0.247444,-0.968902,0.968902,0.247444,-53.1398,148.017)">
                <text x="68.715px" y="108.217px" style="font-family:'CenturyGothic-Bold', 'Century Gothic', sans-serif;font-weight:700;font-size:12px;">R</text>
            </g>
            <g transform="matrix(0.386612,-0.922242,0.922242,0.386612,-50.3806,127.182)">
                <text x="70.421px" y="101.465px" style="font-family:'CenturyGothic-Bold', 'Century Gothic', sans-serif;font-weight:700;font-size:12px;">E</text>
            </g>
            <g transform="matrix(0.506705,-0.86212,0.86212,0.506705,-46.5712,110)">
                <text x="72.836px" y="95.696px" style="font-family:'CenturyGothic-Bold', 'Century Gothic', sans-serif;font-weight:700;font-size:12px;">S</text>
            </g>
            <g transform="matrix(0.641703,-0.766953,0.766953,0.641703,-42.0149,90.611)">
                <text x="75.971px" y="90.273px" style="font-family:'CenturyGothic-Bold', 'Century Gothic', sans-serif;font-weight:700;font-size:12px;">U</text>
            </g>
            <g transform="matrix(0.792221,-0.610234,0.610234,0.792221,-34.615,66.8099)">
                <text x="80.801px" y="84.236px" style="font-family:'CenturyGothic-Bold', 'Century Gothic', sans-serif;font-weight:700;font-size:12px;">M</text>
            </g>
            <g transform="matrix(0.903187,-0.429247,0.429247,0.903187,-24.7316,45.9532)">
                <text x="89.508px" y="77.804px" style="font-family:'CenturyGothic-Bold', 'Century Gothic', sans-serif;font-weight:700;font-size:12px;">E</text>
            </g>
            <g transform="matrix(0.982234,-0.187662,0.187662,0.982234,-12.1294,19.7625)">
                <text x="98.309px" y="73.942px" style="font-family:'AppleSymbols', 'Apple Symbols';font-size:12px;">★</text>
            </g>
        </g>
    </g>
</svg>
